{"glyphs":{"0":{"ha":746,"x_min":0,"x_max":0,"o":"m 374 -21 b 679 479 636 -21 679 193 b 374 993 679 764 636 993 b 67 479 111 993 67 764 b 374 -21 67 193 111 -21 z m 372 249 b 115 481 186 249 115 326 b 372 722 115 642 188 722 b 631 481 557 722 631 642 b 372 249 631 326 557 249 z "},"1":{"ha":619,"x_min":0,"x_max":0,"o":"m 510 117 l 510 972 l 260 972 b 4 724 236 768 74 725 l 4 675 b 204 722 63 669 142 682 l 204 117 b 107 28 204 35 142 29 l 107 0 l 607 0 l 607 28 b 510 117 572 29 508 35 z "},"2":{"ha":753,"x_min":0,"x_max":0,"o":"m 535 -21 b 696 350 669 -21 696 86 l 647 350 b 571 222 647 257 631 222 b 256 322 467 222 382 322 b 685 760 326 396 685 476 b 338 994 685 913 513 994 b 83 929 249 994 157 972 l 54 699 l 110 699 b 326 946 147 865 249 946 b 421 749 392 946 421 885 b 115 210 421 513 232 410 b 26 0 76 143 35 56 l 75 0 b 94 61 78 22 85 44 b 149 96 106 82 121 96 b 535 -21 301 96 364 -21 z "},"3":{"ha":746,"x_min":0,"x_max":0,"o":"m 321 -22 b 693 281 533 -22 693 82 b 432 557 693 467 554 535 b 683 779 549 572 683 636 b 357 994 683 918 519 994 b 115 928 271 994 176 972 l 83 697 l 139 697 b 314 944 183 847 254 944 b 408 779 383 944 408 886 b 243 581 408 664 347 581 l 167 581 l 153 532 l 236 532 b 417 281 386 532 417 390 b 278 26 417 110 358 26 b 85 242 211 26 144 101 l 28 242 l 64 36 b 321 -22 144 -3 236 -22 z "},"4":{"ha":738,"x_min":0,"x_max":0,"o":"m 576 117 l 576 381 l 700 381 l 700 661 l 671 661 b 579 589 671 606 644 589 l 576 589 l 576 972 l 271 972 l 28 589 l 28 381 l 271 381 l 271 117 b 188 28 272 35 222 29 l 188 0 l 660 0 l 660 28 b 576 117 625 29 575 35 z m 88 589 l 271 881 l 271 589 z "},"5":{"ha":742,"x_min":0,"x_max":0,"o":"m 344 715 b 135 590 264 715 186 685 l 135 764 l 515 764 b 606 692 581 764 606 743 l 635 692 l 635 972 l 86 972 l 86 488 l 133 488 b 303 665 194 613 238 665 b 400 353 364 665 400 556 b 292 32 400 133 371 32 b 135 274 233 32 183 99 l 79 274 l 111 43 b 344 -21 196 0 267 -21 b 685 344 536 -21 685 107 b 344 715 685 585 536 715 z "},"6":{"ha":829,"x_min":0,"x_max":0,"o":"m 421 743 b 322 732 379 743 340 736 b 475 943 335 864 401 943 b 692 690 550 943 649 865 l 747 690 l 701 921 b 471 993 629 971 553 993 b 53 424 208 993 53 804 b 417 -21 53 131 219 -21 b 772 353 593 -21 772 96 b 421 743 772 615 608 743 z m 415 28 b 325 381 350 28 325 128 b 411 694 325 592 347 694 b 501 353 476 694 501 582 b 415 28 501 118 479 28 z "},"7":{"ha":613,"x_min":0,"x_max":0,"o":"m 50 972 l 50 692 l 79 692 b 171 764 79 747 106 764 l 521 764 b 271 444 521 625 386 551 b 64 0 165 347 64 224 l 369 0 b 461 392 371 215 408 307 b 569 764 515 479 571 558 l 569 972 z "},"8":{"ha":810,"x_min":0,"x_max":0,"o":"m 551 589 b 733 779 644 617 733 674 b 418 993 733 951 556 993 b 89 756 247 993 89 922 b 235 489 89 621 154 544 b 38 238 96 443 38 333 b 410 -21 38 78 164 -21 b 761 282 613 -21 761 79 b 551 589 761 463 658 536 z m 404 949 b 497 799 451 949 497 903 b 469 629 497 736 493 669 b 307 819 381 671 307 717 b 404 949 307 900 356 949 z m 410 28 b 276 247 321 28 276 119 b 319 438 276 325 292 393 b 542 207 431 376 542 328 b 410 28 542 94 503 28 z "},"9":{"ha":831,"x_min":0,"x_max":0,"o":"m 413 993 b 57 619 236 993 57 876 b 408 229 57 357 221 229 b 507 240 450 229 489 236 b 382 29 494 108 456 29 b 138 282 279 29 181 107 l 82 282 l 128 51 b 386 -21 200 1 304 -21 b 776 549 649 -21 776 168 b 413 993 776 842 610 993 z m 418 278 b 328 619 353 278 328 390 b 414 944 328 854 350 944 b 504 592 479 944 504 844 b 418 278 504 381 482 278 z "}," ":{"ha":243,"x_min":0,"x_max":0,"o":""},"A":{"ha":889,"x_min":0,"x_max":0,"o":"m 1 0 l 219 0 l 219 28 b 174 104 186 31 151 32 l 204 190 l 410 190 l 439 107 b 394 28 461 35 428 31 l 394 0 l 888 0 l 888 28 b 764 110 854 29 792 32 l 447 993 l 433 993 l 121 101 b 1 28 96 29 35 31 z m 222 239 l 306 482 l 392 239 z "},"Á":{"ha":886,"x_min":0,"x_max":0,"o":"m 599 1267 l 536 1342 l 293 1093 l 325 1050 z m 1 0 l 219 0 l 219 28 b 174 104 186 31 151 32 l 204 190 l 410 190 l 439 107 b 394 28 461 35 428 31 l 394 0 l 888 0 l 888 28 b 764 110 854 29 792 32 l 447 993 l 433 993 l 121 101 b 1 28 96 29 35 31 z m 222 239 l 306 482 l 392 239 z "},"Â":{"ha":886,"x_min":0,"x_max":0,"o":"m 681 1071 l 438 1319 l 194 1071 l 226 1028 l 438 1194 l 649 1028 z m 1 0 l 219 0 l 219 28 b 174 104 186 31 151 32 l 204 190 l 410 190 l 439 107 b 394 28 461 35 428 31 l 394 0 l 888 0 l 888 28 b 764 110 854 29 792 32 l 447 993 l 433 993 l 121 101 b 1 28 96 29 35 31 z m 222 239 l 306 482 l 392 239 z "},"Ä":{"ha":886,"x_min":0,"x_max":0,"o":"m 390 1156 b 296 1250 390 1214 344 1250 b 201 1156 247 1250 201 1214 b 296 1060 201 1096 247 1060 b 390 1156 344 1060 390 1096 z m 658 1156 b 565 1250 658 1214 613 1250 b 469 1156 515 1250 469 1213 b 565 1060 469 1096 515 1060 b 658 1156 613 1060 658 1096 z m 1 0 l 219 0 l 219 28 b 174 104 186 31 151 32 l 204 190 l 410 190 l 439 107 b 394 28 461 35 428 31 l 394 0 l 888 0 l 888 28 b 764 110 854 29 792 32 l 447 993 l 433 993 l 121 101 b 1 28 96 29 35 31 z m 222 239 l 306 482 l 392 239 z "},"À":{"ha":886,"x_min":0,"x_max":0,"o":"m 264 1267 l 538 1050 l 569 1093 l 326 1342 z m 1 0 l 219 0 l 219 28 b 174 104 186 31 151 32 l 204 190 l 410 190 l 439 107 b 394 28 461 35 428 31 l 394 0 l 888 0 l 888 28 b 764 110 854 29 792 32 l 447 993 l 433 993 l 121 101 b 1 28 96 29 35 31 z m 222 239 l 306 482 l 392 239 z "},"Å":{"ha":889,"x_min":0,"x_max":0,"o":"m 428 1050 b 557 1179 499 1050 557 1108 b 428 1308 557 1250 499 1308 b 299 1179 357 1308 299 1250 b 428 1050 299 1108 357 1050 z m 428 1097 b 347 1179 382 1097 347 1133 b 428 1261 347 1225 382 1261 b 508 1179 474 1261 508 1225 b 428 1097 508 1133 474 1097 z m 1 0 l 219 0 l 219 28 b 174 104 186 31 151 32 l 204 190 l 410 190 l 439 107 b 394 28 461 35 428 31 l 394 0 l 888 0 l 888 28 b 764 110 854 29 792 32 l 447 993 l 433 993 l 121 101 b 1 28 96 29 35 31 z m 222 239 l 306 482 l 392 239 z "},"Ã":{"ha":886,"x_min":0,"x_max":0,"o":"m 319 1183 b 542 1050 379 1183 458 1050 b 624 1290 603 1050 624 1085 l 596 1290 b 550 1190 596 1203 578 1190 b 333 1324 503 1190 411 1324 b 246 1083 267 1324 246 1275 l 274 1083 b 319 1183 274 1171 292 1183 z m 1 0 l 219 0 l 219 28 b 174 104 186 31 151 32 l 204 190 l 410 190 l 439 107 b 394 28 461 35 428 31 l 394 0 l 888 0 l 888 28 b 764 110 854 29 792 32 l 447 993 l 433 993 l 121 101 b 1 28 96 29 35 31 z m 222 239 l 306 482 l 392 239 z "},"Æ":{"ha":1367,"x_min":0,"x_max":0,"o":"m 985 938 b 1253 632 1211 938 1243 756 l 1281 632 l 1281 972 l 528 972 l 528 944 b 603 903 554 943 589 939 l 118 101 b -1 28 79 36 32 31 l -1 0 l 222 0 l 222 28 b 176 104 189 31 140 43 l 411 492 l 611 492 l 611 117 b 528 28 611 36 563 29 l 528 0 l 1281 0 l 1281 340 l 1253 340 b 985 35 1243 217 1211 35 l 917 35 l 917 492 l 929 492 b 1168 272 1000 492 1106 408 l 1193 276 l 1047 707 l 1022 703 b 929 540 1039 597 1013 540 l 917 540 l 917 938 z m 442 540 l 611 821 l 611 540 z "},"B":{"ha":964,"x_min":0,"x_max":0,"o":"m 708 661 b 871 807 814 682 871 725 b 618 972 871 890 785 972 l 35 972 l 35 944 b 118 856 69 943 118 936 l 118 117 b 35 28 118 36 69 29 l 35 0 l 576 0 b 917 347 804 0 917 174 b 708 661 917 494 836 626 z m 450 924 b 557 811 522 924 557 868 b 450 694 557 753 521 694 l 424 694 l 424 924 z m 436 35 l 424 35 l 424 644 l 436 644 b 604 333 546 644 604 489 b 436 35 604 183 549 35 z "},"C":{"ha":932,"x_min":0,"x_max":0,"o":"m 533 993 b 58 479 249 993 58 797 b 554 -19 58 149 306 -19 b 890 239 810 -19 878 149 l 842 249 b 649 86 810 142 736 86 b 367 518 469 86 367 263 b 565 944 367 782 435 944 b 819 653 667 944 756 860 l 875 653 l 846 885 b 533 993 813 932 711 993 z "},"Ç":{"ha":932,"x_min":0,"x_max":0,"o":"m 890 239 l 842 249 b 649 86 810 142 736 86 b 367 518 469 86 367 263 b 565 944 367 782 435 944 b 819 653 667 944 756 860 l 875 653 l 846 885 b 533 993 813 932 711 993 b 58 479 249 993 58 797 b 514 -18 58 167 279 -1 l 488 -83 l 488 -122 b 599 -203 561 -122 599 -157 b 529 -260 599 -244 565 -260 b 457 -236 501 -260 471 -250 l 438 -272 b 540 -301 458 -292 493 -301 b 713 -196 658 -301 713 -257 b 540 -82 713 -139 651 -81 l 564 -19 b 890 239 811 -15 878 150 z "},"D":{"ha":992,"x_min":0,"x_max":0,"o":"m 511 972 l 35 972 l 35 944 b 118 856 69 943 118 936 l 118 117 b 35 28 118 36 69 29 l 35 0 l 511 0 b 944 486 800 0 944 243 b 511 972 944 729 800 972 z m 439 49 l 424 49 l 424 924 l 439 924 b 631 479 571 924 631 700 b 439 49 631 263 574 49 z "},"Ð":{"ha":992,"x_min":0,"x_max":0,"o":"m 511 972 l 35 972 l 35 944 b 118 856 69 943 118 936 l 118 511 l 42 511 l 42 461 l 118 461 l 118 117 b 35 28 118 36 69 29 l 35 0 l 511 0 b 944 486 800 0 944 243 b 511 972 944 729 800 972 z m 439 49 l 424 49 l 424 461 l 517 461 l 517 511 l 424 511 l 424 924 l 439 924 b 631 479 571 924 631 700 b 439 49 631 263 574 49 z "},"E":{"ha":874,"x_min":0,"x_max":0,"o":"m 492 924 b 760 632 718 924 750 756 l 788 632 l 788 972 l 35 972 l 35 944 b 118 856 69 943 118 936 l 118 117 b 35 28 118 36 69 29 l 35 0 l 788 0 l 788 340 l 760 340 b 492 49 750 217 718 49 l 424 49 l 424 646 l 436 646 b 675 413 507 646 613 549 l 700 417 l 554 861 l 529 857 b 436 694 546 751 519 694 l 424 694 l 424 924 z "},"É":{"ha":850,"x_min":0,"x_max":0,"o":"m 607 1267 l 544 1342 l 301 1093 l 333 1050 z m 492 924 b 760 632 718 924 750 756 l 788 632 l 788 972 l 35 972 l 35 944 b 118 856 69 943 118 936 l 118 117 b 35 28 118 36 69 29 l 35 0 l 788 0 l 788 340 l 760 340 b 492 49 750 217 718 49 l 424 49 l 424 646 l 436 646 b 675 413 507 646 613 549 l 700 417 l 554 861 l 529 857 b 436 694 546 751 519 694 l 424 694 l 424 924 z "},"Ê":{"ha":850,"x_min":0,"x_max":0,"o":"m 685 1093 l 442 1342 l 199 1093 l 231 1050 l 442 1217 l 653 1050 z m 492 924 b 760 632 718 924 750 756 l 788 632 l 788 972 l 35 972 l 35 944 b 118 856 69 943 118 936 l 118 117 b 35 28 118 36 69 29 l 35 0 l 788 0 l 788 340 l 760 340 b 492 49 750 217 718 49 l 424 49 l 424 646 l 436 646 b 675 413 507 646 613 549 l 700 417 l 554 861 l 529 857 b 436 694 546 751 519 694 l 424 694 l 424 924 z "},"Ë":{"ha":850,"x_min":0,"x_max":0,"o":"m 397 1169 b 303 1264 397 1228 351 1264 b 208 1169 254 1264 208 1228 b 303 1074 208 1110 254 1074 b 397 1169 351 1074 397 1110 z m 665 1169 b 572 1264 665 1228 619 1264 b 476 1169 522 1264 476 1226 b 572 1074 476 1110 522 1074 b 665 1169 619 1074 665 1110 z m 492 924 b 760 632 718 924 750 756 l 788 632 l 788 972 l 35 972 l 35 944 b 118 856 69 943 118 936 l 118 117 b 35 28 118 36 69 29 l 35 0 l 788 0 l 788 340 l 760 340 b 492 49 750 217 718 49 l 424 49 l 424 646 l 436 646 b 675 413 507 646 613 549 l 700 417 l 554 861 l 529 857 b 436 694 546 751 519 694 l 424 694 l 424 924 z "},"È":{"ha":850,"x_min":0,"x_max":0,"o":"m 275 1267 l 549 1050 l 581 1093 l 338 1342 z m 492 924 b 760 632 718 924 750 756 l 788 632 l 788 972 l 35 972 l 35 944 b 118 856 69 943 118 936 l 118 117 b 35 28 118 36 69 29 l 35 0 l 788 0 l 788 340 l 760 340 b 492 49 750 217 718 49 l 424 49 l 424 646 l 436 646 b 675 413 507 646 613 549 l 700 417 l 554 861 l 529 857 b 436 694 546 751 519 694 l 424 694 l 424 924 z "},"F":{"ha":826,"x_min":0,"x_max":0,"o":"m 788 972 l 35 972 l 35 944 b 118 856 69 943 118 936 l 118 117 b 35 28 118 36 69 29 l 35 0 l 507 0 l 507 28 b 424 117 472 29 424 36 l 424 660 l 436 660 b 675 426 507 660 613 563 l 700 431 l 554 861 l 529 857 b 436 694 546 751 519 694 l 424 694 l 424 938 l 492 938 b 760 632 718 938 750 756 l 788 632 z "},"G":{"ha":1014,"x_min":0,"x_max":0,"o":"m 519 614 l 519 586 b 603 497 554 585 603 578 l 603 35 b 564 28 596 31 588 28 b 360 482 443 28 360 254 b 564 944 360 713 431 944 b 810 653 667 944 746 860 l 865 653 l 836 885 b 556 993 793 943 722 993 b 49 479 239 993 49 797 b 524 -21 49 199 214 -21 b 651 21 588 -21 624 -6 l 908 -19 l 908 497 b 992 586 908 578 957 585 l 992 614 z "},"H":{"ha":1042,"x_min":0,"x_max":0,"o":"m 1007 944 l 1007 972 l 535 972 l 535 944 b 618 856 569 943 618 936 l 618 694 l 424 694 l 424 856 b 507 944 424 936 472 943 l 507 972 l 35 972 l 35 944 b 118 856 69 943 118 936 l 118 117 b 35 28 118 36 69 29 l 35 0 l 507 0 l 507 28 b 424 117 472 29 424 36 l 424 646 l 618 646 l 618 117 b 535 28 618 36 569 29 l 535 0 l 1007 0 l 1007 28 b 924 117 972 29 924 36 l 924 856 b 1007 944 924 936 972 943 z "},"I":{"ha":542,"x_min":0,"x_max":0,"o":"m 35 0 l 507 0 l 507 28 b 424 117 472 29 424 36 l 424 856 b 507 944 424 936 472 943 l 507 972 l 35 972 l 35 944 b 118 856 69 943 118 936 l 118 117 b 35 28 118 36 69 29 z "},"Í":{"ha":514,"x_min":0,"x_max":0,"o":"m 408 1267 l 346 1342 l 103 1093 l 135 1050 z m 35 0 l 507 0 l 507 28 b 424 117 472 29 424 36 l 424 856 b 507 944 424 936 472 943 l 507 972 l 35 972 l 35 944 b 118 856 69 943 118 936 l 118 117 b 35 28 118 36 69 29 z "},"Î":{"ha":514,"x_min":0,"x_max":0,"o":"m 510 1093 l 267 1342 l 24 1093 l 56 1050 l 267 1217 l 478 1050 z m 35 0 l 507 0 l 507 28 b 424 117 472 29 424 36 l 424 856 b 507 944 424 936 472 943 l 507 972 l 35 972 l 35 944 b 118 856 69 943 118 936 l 118 117 b 35 28 118 36 69 29 z "},"Ï":{"ha":514,"x_min":0,"x_max":0,"o":"m 235 1169 b 140 1264 235 1228 189 1264 b 46 1169 92 1264 46 1228 b 140 1074 46 1110 92 1074 b 235 1169 189 1074 235 1110 z m 503 1169 b 410 1264 503 1228 457 1264 b 314 1169 360 1264 314 1226 b 410 1074 314 1110 360 1074 b 503 1169 457 1074 503 1110 z m 35 0 l 507 0 l 507 28 b 424 117 472 29 424 36 l 424 856 b 507 944 424 936 472 943 l 507 972 l 35 972 l 35 944 b 118 856 69 943 118 936 l 118 117 b 35 28 118 36 69 29 z "},"Ì":{"ha":514,"x_min":0,"x_max":0,"o":"m 100 1253 l 374 1036 l 406 1079 l 163 1328 z m 35 0 l 507 0 l 507 28 b 424 117 472 29 424 36 l 424 856 b 507 944 424 936 472 943 l 507 972 l 35 972 l 35 944 b 118 856 69 943 118 936 l 118 117 b 35 28 118 36 69 29 z "},"J":{"ha":532,"x_min":0,"x_max":0,"o":"m 503 972 l 31 972 l 31 944 b 114 856 65 943 114 936 l 114 21 b -33 -229 114 -167 81 -229 b -219 -121 -124 -229 -185 -179 l -260 -149 b 72 -299 -222 -224 -125 -299 b 419 61 344 -299 419 -144 l 419 856 b 503 944 419 936 468 943 z "},"K":{"ha":1088,"x_min":0,"x_max":0,"o":"m 965 104 l 686 839 l 717 865 b 928 944 810 936 894 943 l 928 972 l 686 972 l 686 944 b 664 883 717 943 724 938 l 424 681 l 424 856 b 507 944 424 936 472 943 l 507 972 l 35 972 l 35 944 b 118 856 69 943 118 936 l 118 117 b 35 28 118 36 69 29 l 35 0 l 507 0 l 507 28 b 424 117 472 29 424 36 l 424 617 l 439 631 l 636 108 b 592 28 658 35 625 29 l 592 0 l 1089 0 l 1089 28 b 965 104 1054 29 999 35 z "},"L":{"ha":825,"x_min":0,"x_max":0,"o":"m 760 340 b 492 35 750 217 718 35 l 424 35 l 424 856 b 507 944 424 936 472 943 l 507 972 l 35 972 l 35 944 b 118 856 69 943 118 936 l 118 117 b 35 28 118 36 69 29 l 35 0 l 788 0 l 788 340 z "},"M":{"ha":1042,"x_min":0,"x_max":0,"o":"m 1007 944 l 1007 972 l 618 972 l 524 713 l 422 972 l 35 972 l 35 944 b 118 856 69 943 118 936 l 118 117 b 35 28 118 36 69 29 l 35 0 l 250 0 l 250 28 b 167 117 215 29 167 36 l 167 783 l 393 213 l 618 828 l 618 117 b 535 28 618 36 569 29 l 535 0 l 1007 0 l 1007 28 b 924 117 972 29 924 36 l 924 856 b 1007 944 924 936 972 943 z "},"N":{"ha":904,"x_min":0,"x_max":0,"o":"m 660 972 l 660 944 b 743 856 694 943 743 936 l 743 500 l 440 971 l 35 972 l 35 944 b 118 856 69 943 118 936 l 118 117 b 35 28 118 36 69 29 l 35 0 l 250 0 l 250 28 b 167 117 215 29 167 36 l 167 832 l 701 0 l 792 0 l 792 856 b 875 944 792 936 840 943 l 875 972 z "},"Ñ":{"ha":882,"x_min":0,"x_max":0,"o":"m 338 1183 b 560 1050 397 1183 476 1050 b 642 1290 621 1050 642 1085 l 614 1290 b 568 1190 614 1203 596 1190 b 351 1324 521 1190 429 1324 b 264 1083 285 1324 264 1275 l 292 1083 b 338 1183 292 1171 310 1183 z m 660 972 l 660 944 b 743 856 694 943 743 936 l 743 500 l 440 971 l 35 972 l 35 944 b 118 856 69 943 118 936 l 118 117 b 35 28 118 36 69 29 l 35 0 l 250 0 l 250 28 b 167 117 215 29 167 36 l 167 832 l 701 0 l 792 0 l 792 856 b 875 944 792 936 840 943 l 875 972 z "},"O":{"ha":899,"x_min":0,"x_max":0,"o":"m 450 -21 b 840 479 688 -21 840 129 b 450 993 840 828 688 993 b 58 479 213 993 58 828 b 450 -21 58 129 213 -21 z m 450 28 b 371 506 390 28 371 103 b 450 944 371 875 388 944 b 528 489 511 944 528 875 b 450 28 528 103 511 28 z "},"Ó":{"ha":851,"x_min":0,"x_max":0,"o":"m 567 1267 l 504 1342 l 261 1093 l 293 1050 z m 450 -21 b 840 479 688 -21 840 129 b 450 993 840 828 688 993 b 58 479 213 993 58 828 b 450 -21 58 129 213 -21 z m 450 28 b 371 506 390 28 371 103 b 450 944 371 875 388 944 b 528 489 511 944 528 875 b 450 28 528 103 511 28 z "},"Ô":{"ha":851,"x_min":0,"x_max":0,"o":"m 693 1093 l 450 1342 l 207 1093 l 239 1050 l 450 1217 l 661 1050 z m 450 -21 b 840 479 688 -21 840 129 b 450 993 840 828 688 993 b 58 479 213 993 58 828 b 450 -21 58 129 213 -21 z m 450 28 b 371 506 390 28 371 103 b 450 944 371 875 388 944 b 528 489 511 944 528 875 b 450 28 528 103 511 28 z "},"Ö":{"ha":851,"x_min":0,"x_max":0,"o":"m 410 1169 b 315 1264 410 1228 364 1264 b 221 1169 267 1264 221 1228 b 315 1074 221 1110 267 1074 b 410 1169 364 1074 410 1110 z m 678 1169 b 585 1264 678 1228 632 1264 b 489 1169 535 1264 489 1226 b 585 1074 489 1110 535 1074 b 678 1169 632 1074 678 1110 z m 450 -21 b 840 479 688 -21 840 129 b 450 993 840 828 688 993 b 58 479 213 993 58 828 b 450 -21 58 129 213 -21 z m 450 28 b 371 506 390 28 371 103 b 450 944 371 875 388 944 b 528 489 511 944 528 875 b 450 28 528 103 511 28 z "},"Ò":{"ha":851,"x_min":0,"x_max":0,"o":"m 283 1267 l 557 1050 l 589 1093 l 346 1342 z m 450 -21 b 840 479 688 -21 840 129 b 450 993 840 828 688 993 b 58 479 213 993 58 828 b 450 -21 58 129 213 -21 z m 450 28 b 371 506 390 28 371 103 b 450 944 371 875 388 944 b 528 489 511 944 528 875 b 450 28 528 103 511 28 z "},"Ø":{"ha":899,"x_min":0,"x_max":0,"o":"m 718 886 l 806 1061 l 751 1064 l 679 921 b 450 993 618 969 540 993 b 58 479 213 993 58 828 b 233 38 58 253 124 110 l 174 -81 l 231 -81 l 278 13 b 450 -21 328 -10 386 -21 b 840 479 688 -21 840 129 b 718 886 840 667 796 801 z m 371 506 b 450 944 371 875 388 944 b 526 619 504 944 524 892 l 374 314 b 371 506 371 368 371 431 z m 450 28 b 378 211 410 28 388 63 l 528 510 l 528 489 b 450 28 528 103 511 28 z "},"Õ":{"ha":851,"x_min":0,"x_max":0,"o":"m 331 1183 b 553 1050 390 1183 469 1050 b 635 1290 614 1050 635 1085 l 607 1290 b 561 1190 607 1203 589 1190 b 344 1324 514 1190 422 1324 b 257 1083 278 1324 257 1275 l 285 1083 b 331 1183 285 1171 303 1183 z m 450 -21 b 840 479 688 -21 840 129 b 450 993 840 828 688 993 b 58 479 213 993 58 828 b 450 -21 58 129 213 -21 z m 450 28 b 371 506 390 28 371 103 b 450 944 371 875 388 944 b 528 489 511 944 528 875 b 450 28 528 103 511 28 z "},"Œ":{"ha":1313,"x_min":0,"x_max":0,"o":"m 931 938 b 1199 632 1157 938 1189 756 l 1226 632 l 1226 972 l 449 972 b 57 479 211 972 57 828 b 449 0 57 129 211 0 l 1226 0 l 1226 340 l 1199 340 b 931 35 1189 217 1157 35 l 863 35 l 863 660 l 875 660 b 1114 426 946 660 1051 563 l 1139 431 l 993 861 l 968 857 b 875 694 985 751 958 694 l 863 694 l 863 938 z m 557 138 b 474 49 557 57 510 49 l 449 49 b 369 506 389 49 369 103 b 449 924 369 875 386 924 l 474 924 b 557 835 510 924 557 915 z "},"P":{"ha":889,"x_min":0,"x_max":0,"o":"m 618 972 l 35 972 l 35 944 b 118 856 69 943 118 936 l 118 117 b 35 28 118 36 69 38 l 35 0 l 507 0 l 507 28 b 424 117 472 29 424 36 l 424 589 l 618 589 b 871 779 788 589 871 685 b 618 972 871 876 786 972 z m 450 924 b 557 783 522 924 557 854 b 450 639 557 711 521 639 l 424 639 l 424 924 z "},"Þ":{"ha":1049,"x_min":0,"x_max":0,"o":"m 557 797 l 424 797 l 424 856 b 507 944 424 936 472 943 l 507 972 l 35 972 l 35 944 b 118 856 69 943 118 936 l 118 117 b 35 28 118 36 69 29 l 35 0 l 507 0 l 507 28 b 424 117 472 29 424 36 l 424 186 l 557 186 b 1000 492 853 186 1000 339 b 557 797 1000 644 853 797 z m 442 235 l 424 235 l 424 749 l 442 749 b 688 492 606 749 688 619 b 442 235 688 363 606 235 z "},"Q":{"ha":903,"x_min":0,"x_max":0,"o":"m 450 993 b 58 479 213 993 58 828 b 219 47 58 263 118 122 b 126 -185 156 1 126 -104 l 151 -185 b 211 -90 153 -146 174 -90 b 603 -299 333 -90 456 -299 b 796 31 731 -299 796 -142 l 771 31 b 700 -100 771 -51 744 -100 b 490 -19 646 -100 567 -60 b 840 479 704 -3 840 150 b 450 993 840 828 688 993 z m 371 506 b 450 944 371 875 388 944 b 528 489 511 944 528 875 b 450 28 528 103 511 28 b 371 506 390 28 371 103 z "},"R":{"ha":978,"x_min":0,"x_max":0,"o":"m 865 172 b 682 613 813 365 931 550 b 871 779 771 613 871 682 b 618 972 871 876 786 972 l 35 972 l 35 944 b 118 856 69 943 118 936 l 118 117 b 35 28 118 36 69 29 l 35 0 l 507 0 l 507 28 b 424 117 472 29 424 36 l 424 589 l 467 589 b 563 139 604 589 500 304 b 894 -4 611 11 729 -4 l 978 -4 l 978 24 b 865 172 936 24 890 81 z m 450 639 l 424 639 l 424 924 l 450 924 b 557 783 522 924 557 854 b 450 639 557 711 521 639 z "},"S":{"ha":836,"x_min":0,"x_max":0,"o":"m 438 -21 b 799 233 625 -21 799 31 b 368 833 799 478 368 622 b 475 944 368 910 403 944 b 708 654 560 944 650 854 l 764 654 l 732 894 b 428 993 689 950 590 993 b 88 739 218 993 88 914 b 525 121 88 451 525 283 b 411 28 525 63 499 28 b 117 332 297 28 157 132 l 47 332 l 79 92 b 438 -21 124 33 288 -21 z "},"T":{"ha":944,"x_min":0,"x_max":0,"o":"m 907 972 l 38 972 l 38 632 l 65 632 b 313 938 75 754 108 938 l 321 938 l 321 117 b 238 14 321 36 272 24 l 238 0 l 710 0 l 710 14 b 626 117 675 24 626 36 l 626 938 l 635 938 b 879 632 838 938 869 753 l 907 632 z "},"U":{"ha":1033,"x_min":0,"x_max":0,"o":"m 999 944 l 999 972 l 526 972 l 526 944 b 610 856 561 943 610 936 l 610 274 b 517 53 610 151 592 53 b 410 389 443 53 410 161 l 410 856 b 493 944 410 936 458 943 l 493 972 l 21 972 l 21 944 b 104 856 56 943 104 936 l 104 397 b 426 -21 104 82 249 -21 b 610 46 501 -21 565 1 l 610 0 l 999 0 l 999 28 b 915 117 964 29 915 36 l 915 856 b 999 944 915 936 964 943 z "},"Ú":{"ha":1019,"x_min":0,"x_max":0,"o":"m 642 1267 l 579 1342 l 336 1093 l 368 1050 z m 999 944 l 999 972 l 526 972 l 526 944 b 610 856 561 943 610 936 l 610 274 b 517 53 610 151 592 53 b 410 389 443 53 410 161 l 410 856 b 493 944 410 936 458 943 l 493 972 l 21 972 l 21 944 b 104 856 56 943 104 936 l 104 397 b 426 -21 104 82 249 -21 b 610 46 501 -21 565 1 l 610 0 l 999 0 l 999 28 b 915 117 964 29 915 36 l 915 856 b 999 944 915 936 964 943 z "},"Û":{"ha":1019,"x_min":0,"x_max":0,"o":"m 751 1093 l 508 1342 l 265 1093 l 297 1050 l 508 1217 l 719 1050 z m 999 944 l 999 972 l 526 972 l 526 944 b 610 856 561 943 610 936 l 610 274 b 517 53 610 151 592 53 b 410 389 443 53 410 161 l 410 856 b 493 944 410 936 458 943 l 493 972 l 21 972 l 21 944 b 104 856 56 943 104 936 l 104 397 b 426 -21 104 82 249 -21 b 610 46 501 -21 565 1 l 610 0 l 999 0 l 999 28 b 915 117 964 29 915 36 l 915 856 b 999 944 915 936 964 943 z "},"Ü":{"ha":1019,"x_min":0,"x_max":0,"o":"m 460 1169 b 365 1264 460 1228 414 1264 b 271 1169 317 1264 271 1228 b 365 1074 271 1110 317 1074 b 460 1169 414 1074 460 1110 z m 728 1169 b 635 1264 728 1228 682 1264 b 539 1169 585 1264 539 1226 b 635 1074 539 1110 585 1074 b 728 1169 682 1074 728 1110 z m 999 944 l 999 972 l 526 972 l 526 944 b 610 856 561 943 610 936 l 610 274 b 517 53 610 151 592 53 b 410 389 443 53 410 161 l 410 856 b 493 944 410 936 458 943 l 493 972 l 21 972 l 21 944 b 104 856 56 943 104 936 l 104 397 b 426 -21 104 82 249 -21 b 610 46 501 -21 565 1 l 610 0 l 999 0 l 999 28 b 915 117 964 29 915 36 l 915 856 b 999 944 915 936 964 943 z "},"Ù":{"ha":1019,"x_min":0,"x_max":0,"o":"m 331 1267 l 604 1050 l 636 1093 l 393 1342 z m 999 944 l 999 972 l 526 972 l 526 944 b 610 856 561 943 610 936 l 610 274 b 517 53 610 151 592 53 b 410 389 443 53 410 161 l 410 856 b 493 944 410 936 458 943 l 493 972 l 21 972 l 21 944 b 104 856 56 943 104 936 l 104 397 b 426 -21 104 82 249 -21 b 610 46 501 -21 565 1 l 610 0 l 999 0 l 999 28 b 915 117 964 29 915 36 l 915 856 b 999 944 915 936 964 943 z "},"V":{"ha":883,"x_min":0,"x_max":0,"o":"m 465 -21 l 479 -21 l 765 871 b 885 944 789 943 851 942 l 885 972 l 667 972 l 667 944 b 713 868 700 942 736 939 l 593 500 l 449 865 b 493 944 421 935 460 942 l 493 972 l -1 972 l -1 944 b 122 863 32 943 92 940 z "},"W":{"ha":1424,"x_min":0,"x_max":0,"o":"m 1208 972 l 1208 944 b 1254 868 1242 942 1274 942 l 1168 550 l 1046 865 b 1090 944 1019 935 1057 942 l 1090 972 l 596 972 l 596 944 b 672 925 615 943 644 942 l 571 550 l 449 865 b 493 944 422 935 460 942 l 493 972 l -1 972 l -1 944 b 122 863 32 943 92 940 l 465 -21 l 711 882 l 1063 -21 l 1306 871 b 1425 944 1325 943 1392 942 l 1425 972 z "},"Ẃ":{"ha":1424,"x_min":0,"x_max":0,"o":"m 978 1267 l 915 1342 l 672 1093 l 704 1050 z m 1208 972 l 1208 944 b 1254 868 1242 942 1274 942 l 1168 550 l 1046 865 b 1090 944 1019 935 1057 942 l 1090 972 l 596 972 l 596 944 b 672 925 615 943 644 942 l 571 550 l 449 865 b 493 944 422 935 460 942 l 493 972 l -1 972 l -1 944 b 122 863 32 943 92 940 l 465 -21 l 711 882 l 1063 -21 l 1306 871 b 1425 944 1325 943 1392 942 l 1425 972 z "},"Ŵ":{"ha":1424,"x_min":0,"x_max":0,"o":"m 1064 1093 l 821 1342 l 578 1093 l 610 1050 l 821 1217 l 1032 1050 z m 1208 972 l 1208 944 b 1254 868 1242 942 1274 942 l 1168 550 l 1046 865 b 1090 944 1019 935 1057 942 l 1090 972 l 596 972 l 596 944 b 672 925 615 943 644 942 l 571 550 l 449 865 b 493 944 422 935 460 942 l 493 972 l -1 972 l -1 944 b 122 863 32 943 92 940 l 465 -21 l 711 882 l 1063 -21 l 1306 871 b 1425 944 1325 943 1392 942 l 1425 972 z "},"Ẅ":{"ha":1424,"x_min":0,"x_max":0,"o":"m 753 1160 b 658 1254 753 1218 707 1254 b 564 1160 610 1254 564 1218 b 658 1064 564 1100 610 1064 b 753 1160 707 1064 753 1100 z m 1021 1160 b 928 1254 1021 1218 975 1254 b 832 1160 878 1254 832 1217 b 928 1064 832 1100 878 1064 b 1021 1160 975 1064 1021 1100 z m 1208 972 l 1208 944 b 1254 868 1242 942 1274 942 l 1168 550 l 1046 865 b 1090 944 1019 935 1057 942 l 1090 972 l 596 972 l 596 944 b 672 925 615 943 644 942 l 571 550 l 449 865 b 493 944 422 935 460 942 l 493 972 l -1 972 l -1 944 b 122 863 32 943 92 940 l 465 -21 l 711 882 l 1063 -21 l 1306 871 b 1425 944 1325 943 1392 942 l 1425 972 z "},"Ẁ":{"ha":1424,"x_min":0,"x_max":0,"o":"m 722 1267 l 996 1050 l 1028 1093 l 785 1342 z m 1208 972 l 1208 944 b 1254 868 1242 942 1274 942 l 1168 550 l 1046 865 b 1090 944 1019 935 1057 942 l 1090 972 l 596 972 l 596 944 b 672 925 615 943 644 942 l 571 550 l 449 865 b 493 944 422 935 460 942 l 493 972 l -1 972 l -1 944 b 122 863 32 943 92 940 l 465 -21 l 711 882 l 1063 -21 l 1306 871 b 1425 944 1325 943 1392 942 l 1425 972 z "},"X":{"ha":944,"x_min":0,"x_max":0,"o":"m 25 0 l 249 0 l 249 28 b 219 103 215 29 185 36 l 358 368 l 481 99 b 442 28 504 33 474 29 l 442 0 l 944 0 l 944 28 b 814 103 911 29 851 35 l 586 607 l 719 865 b 858 944 763 935 825 944 l 858 972 l 635 972 l 635 944 b 658 857 668 943 696 932 l 560 667 l 472 860 b 504 944 439 936 469 943 l 504 972 l 3 972 l 3 944 b 136 863 36 943 100 936 l 332 426 l 165 108 b 25 28 122 36 58 29 z "},"Y":{"ha":932,"x_min":0,"x_max":0,"o":"m 225 0 l 697 0 l 697 28 b 614 117 663 29 614 36 l 614 428 l 797 851 b 933 944 829 925 901 943 l 933 972 l 713 972 l 713 944 b 753 872 744 943 776 928 l 599 514 l 451 874 b 494 944 426 936 463 943 l 494 972 l -1 972 l -1 944 b 126 863 31 943 94 940 l 308 417 l 308 117 b 225 28 308 36 260 29 z "},"Ý":{"ha":963,"x_min":0,"x_max":0,"o":"m 667 1267 l 604 1342 l 361 1093 l 393 1050 z m 225 0 l 697 0 l 697 28 b 614 117 663 29 614 36 l 614 428 l 797 851 b 933 944 829 925 901 943 l 933 972 l 713 972 l 713 944 b 753 872 744 943 776 928 l 599 514 l 451 874 b 494 944 426 936 463 943 l 494 972 l -1 972 l -1 944 b 126 863 31 943 94 940 l 308 417 l 308 117 b 225 28 308 36 260 29 z "},"Ŷ":{"ha":963,"x_min":0,"x_max":0,"o":"m 754 1093 l 511 1342 l 268 1093 l 300 1050 l 511 1217 l 722 1050 z m 225 0 l 697 0 l 697 28 b 614 117 663 29 614 36 l 614 428 l 797 851 b 933 944 829 925 901 943 l 933 972 l 713 972 l 713 944 b 753 872 744 943 776 928 l 599 514 l 451 874 b 494 944 426 936 463 943 l 494 972 l -1 972 l -1 944 b 126 863 31 943 94 940 l 308 417 l 308 117 b 225 28 308 36 260 29 z "},"Ÿ":{"ha":963,"x_min":0,"x_max":0,"o":"m 461 1169 b 367 1264 461 1228 415 1264 b 272 1169 318 1264 272 1228 b 367 1074 272 1110 318 1074 b 461 1169 415 1074 461 1110 z m 729 1169 b 636 1264 729 1228 683 1264 b 540 1169 586 1264 540 1226 b 636 1074 540 1110 586 1074 b 729 1169 683 1074 729 1110 z m 225 0 l 697 0 l 697 28 b 614 117 663 29 614 36 l 614 428 l 797 851 b 933 944 829 925 901 943 l 933 972 l 713 972 l 713 944 b 753 872 744 943 776 928 l 599 514 l 451 874 b 494 944 426 936 463 943 l 494 972 l -1 972 l -1 944 b 126 863 31 943 94 940 l 308 417 l 308 117 b 225 28 308 36 260 29 z "},"Ỳ":{"ha":963,"x_min":0,"x_max":0,"o":"m 340 1267 l 614 1050 l 646 1093 l 403 1342 z m 225 0 l 697 0 l 697 28 b 614 117 663 29 614 36 l 614 428 l 797 851 b 933 944 829 925 901 943 l 933 972 l 713 972 l 713 944 b 753 872 744 943 776 928 l 599 514 l 451 874 b 494 944 426 936 463 943 l 494 972 l -1 972 l -1 944 b 126 863 31 943 94 940 l 308 417 l 308 117 b 225 28 308 36 260 29 z "},"Z":{"ha":814,"x_min":0,"x_max":0,"o":"m 51 0 l 747 0 l 747 340 l 719 340 b 451 35 708 217 678 35 l 383 35 l 763 938 l 763 972 l 67 972 l 67 632 l 94 632 b 363 938 106 756 136 938 l 431 938 l 51 35 z "},"a":{"ha":894,"x_min":0,"x_max":0,"o":"m 299 -21 b 500 57 399 -21 465 3 b 697 -21 528 4 600 -21 b 897 94 853 -21 872 13 l 851 114 b 814 49 840 71 829 49 b 793 125 799 49 793 74 l 793 446 b 438 713 793 647 610 713 b 108 651 347 713 203 692 l 67 407 l 115 407 b 399 663 186 600 324 663 b 482 544 465 663 474 628 b 49 182 206 518 49 333 b 299 -21 49 32 188 -21 z m 426 54 b 375 190 406 54 375 82 b 485 507 375 303 400 483 b 488 411 488 479 488 447 l 488 256 b 426 54 488 107 451 54 z "},"á":{"ha":894,"x_min":0,"x_max":0,"o":"m 553 1003 l 490 1078 l 247 829 l 279 786 z m 299 -21 b 500 57 399 -21 465 3 b 697 -21 528 4 600 -21 b 897 94 853 -21 872 13 l 851 114 b 814 49 840 71 829 49 b 793 125 799 49 793 74 l 793 446 b 438 713 793 647 610 713 b 108 651 347 713 203 692 l 67 407 l 115 407 b 399 663 186 600 324 663 b 482 544 465 663 474 628 b 49 182 206 518 49 333 b 299 -21 49 32 188 -21 z m 426 54 b 375 190 406 54 375 82 b 485 507 375 303 400 483 b 488 411 488 479 488 447 l 488 256 b 426 54 488 107 451 54 z "},"â":{"ha":894,"x_min":0,"x_max":0,"o":"m 688 829 l 444 1078 l 201 829 l 233 786 l 444 953 l 656 786 z m 299 -21 b 500 57 399 -21 465 3 b 697 -21 528 4 600 -21 b 897 94 853 -21 872 13 l 851 114 b 814 49 840 71 829 49 b 793 125 799 49 793 74 l 793 446 b 438 713 793 647 610 713 b 108 651 347 713 203 692 l 67 407 l 115 407 b 399 663 186 600 324 663 b 482 544 465 663 474 628 b 49 182 206 518 49 333 b 299 -21 49 32 188 -21 z m 426 54 b 375 190 406 54 375 82 b 485 507 375 303 400 483 b 488 411 488 479 488 447 l 488 256 b 426 54 488 107 451 54 z "},"ä":{"ha":894,"x_min":0,"x_max":0,"o":"m 408 882 b 314 976 408 940 363 976 b 219 882 265 976 219 940 b 314 786 219 822 265 786 b 408 882 363 786 408 822 z m 676 882 b 583 976 676 940 631 976 b 488 882 533 976 488 939 b 583 786 488 822 533 786 b 676 882 631 786 676 822 z m 299 -21 b 500 57 399 -21 465 3 b 697 -21 528 4 600 -21 b 897 94 853 -21 872 13 l 851 114 b 814 49 840 71 829 49 b 793 125 799 49 793 74 l 793 446 b 438 713 793 647 610 713 b 108 651 347 713 203 692 l 67 407 l 115 407 b 399 663 186 600 324 663 b 482 544 465 663 474 628 b 49 182 206 518 49 333 b 299 -21 49 32 188 -21 z m 426 54 b 375 190 406 54 375 82 b 485 507 375 303 400 483 b 488 411 488 479 488 447 l 488 256 b 426 54 488 107 451 54 z "},"à":{"ha":894,"x_min":0,"x_max":0,"o":"m 279 1003 l 553 786 l 585 829 l 342 1078 z m 299 -21 b 500 57 399 -21 465 3 b 697 -21 528 4 600 -21 b 897 94 853 -21 872 13 l 851 114 b 814 49 840 71 829 49 b 793 125 799 49 793 74 l 793 446 b 438 713 793 647 610 713 b 108 651 347 713 203 692 l 67 407 l 115 407 b 399 663 186 600 324 663 b 482 544 465 663 474 628 b 49 182 206 518 49 333 b 299 -21 49 32 188 -21 z m 426 54 b 375 190 406 54 375 82 b 485 507 375 303 400 483 b 488 411 488 479 488 447 l 488 256 b 426 54 488 107 451 54 z "},"å":{"ha":894,"x_min":0,"x_max":0,"o":"m 436 826 b 565 956 507 826 565 885 b 436 1085 565 1026 507 1085 b 307 956 365 1085 307 1026 b 436 826 307 885 365 826 z m 436 874 b 356 956 390 874 356 910 b 436 1038 356 1001 390 1038 b 517 956 482 1038 517 1001 b 436 874 517 910 482 874 z m 299 -21 b 500 57 399 -21 465 3 b 697 -21 528 4 600 -21 b 897 94 853 -21 872 13 l 851 114 b 814 49 840 71 829 49 b 793 125 799 49 793 74 l 793 446 b 438 713 793 647 610 713 b 108 651 347 713 203 692 l 67 407 l 115 407 b 399 663 186 600 324 663 b 482 544 465 663 474 628 b 49 182 206 518 49 333 b 299 -21 49 32 188 -21 z m 426 54 b 375 190 406 54 375 82 b 485 507 375 303 400 483 b 488 411 488 479 488 447 l 488 256 b 426 54 488 107 451 54 z "},"ã":{"ha":894,"x_min":0,"x_max":0,"o":"m 338 919 b 560 786 397 919 476 786 b 642 1026 621 786 642 821 l 614 1026 b 568 926 614 939 596 926 b 351 1060 521 926 429 1060 b 264 819 285 1060 264 1011 l 292 819 b 338 919 292 907 310 919 z m 299 -21 b 500 57 399 -21 465 3 b 697 -21 528 4 600 -21 b 897 94 853 -21 872 13 l 851 114 b 814 49 840 71 829 49 b 793 125 799 49 793 74 l 793 446 b 438 713 793 647 610 713 b 108 651 347 713 203 692 l 67 407 l 115 407 b 399 663 186 600 324 663 b 482 544 465 663 474 628 b 49 182 206 518 49 333 b 299 -21 49 32 188 -21 z m 426 54 b 375 190 406 54 375 82 b 485 507 375 303 400 483 b 488 411 488 479 488 447 l 488 256 b 426 54 488 107 451 54 z "},"æ":{"ha":1239,"x_min":0,"x_max":0,"o":"m 299 -21 b 585 96 394 -21 490 -8 b 858 -21 651 24 746 -21 b 1207 196 1083 -21 1174 82 l 1165 221 b 993 78 1128 128 1054 78 b 800 342 907 78 800 163 l 800 403 l 1210 403 b 860 715 1210 592 1044 715 b 619 626 788 715 665 694 b 410 713 593 665 525 713 b 108 651 333 713 203 692 l 67 407 l 115 407 b 399 663 186 600 324 663 b 488 451 471 663 488 639 b 49 182 160 451 49 333 b 299 -21 49 32 188 -21 z m 801 451 b 858 674 806 617 822 674 b 929 451 893 674 921 619 z m 426 54 b 375 190 406 54 375 82 b 485 403 375 303 400 403 b 488 307 488 375 488 343 l 488 256 b 426 54 488 107 451 54 z "},"b":{"ha":889,"x_min":0,"x_max":0,"o":"m 85 -21 l 92 -21 l 379 118 b 588 -21 428 33 503 -21 b 854 342 756 -21 854 139 b 588 715 854 544 757 715 b 390 594 508 715 439 669 l 390 972 l 1 972 l 1 944 b 85 856 36 943 85 936 z m 467 96 b 390 342 436 96 390 181 b 468 606 390 513 438 606 b 542 342 499 606 542 524 b 467 96 542 176 497 96 z "},"c":{"ha":757,"x_min":0,"x_max":0,"o":"m 419 -21 b 718 132 532 -21 649 8 l 679 161 b 525 71 642 103 583 71 b 338 390 406 71 338 228 b 476 668 338 522 381 668 b 672 407 561 668 644 542 l 721 407 l 679 651 b 449 715 608 696 528 715 b 32 342 238 715 32 569 b 419 -21 32 113 196 -21 z "},"ç":{"ha":757,"x_min":0,"x_max":0,"o":"m 525 71 b 338 390 406 71 338 228 b 476 668 338 522 381 668 b 672 407 561 668 644 542 l 721 407 l 679 651 b 449 715 608 696 528 715 b 32 342 238 715 32 569 b 400 -21 32 119 186 -14 l 375 -83 l 375 -122 b 486 -203 449 -122 486 -157 b 417 -260 486 -244 453 -260 b 344 -236 389 -260 358 -250 l 325 -272 b 428 -301 346 -292 381 -301 b 600 -196 546 -301 600 -257 b 428 -82 600 -139 539 -81 l 451 -19 b 718 132 553 -14 656 19 l 679 161 b 525 71 642 103 583 71 z "},"d":{"ha":899,"x_min":0,"x_max":0,"o":"m 311 -21 b 519 118 396 -21 471 33 l 807 -21 l 814 -21 l 814 972 l 425 972 l 425 958 b 508 856 460 949 508 936 l 508 594 b 311 715 460 669 390 715 b 44 342 142 715 44 544 b 311 -21 44 139 143 -21 z m 432 96 b 357 342 393 96 357 176 b 431 606 357 524 392 606 b 508 342 461 606 508 513 b 432 96 508 181 463 96 z "},"e":{"ha":785,"x_min":0,"x_max":0,"o":"m 532 71 b 344 342 440 71 363 161 b 340 403 343 363 340 383 l 754 403 b 404 715 754 592 589 715 b 32 333 193 715 32 558 b 429 -21 40 122 200 -21 b 751 196 679 -21 735 140 l 710 221 b 532 71 678 144 608 71 z m 410 674 b 476 451 443 674 478 619 l 339 451 b 410 674 339 582 365 674 z "},"é":{"ha":785,"x_min":0,"x_max":0,"o":"m 561 1003 l 499 1078 l 256 829 l 288 786 z m 532 71 b 344 342 440 71 363 161 b 340 403 343 363 340 383 l 754 403 b 404 715 754 592 589 715 b 32 333 193 715 32 558 b 429 -21 40 122 200 -21 b 751 196 679 -21 735 140 l 710 221 b 532 71 678 144 608 71 z m 410 674 b 476 451 443 674 478 619 l 339 451 b 410 674 339 582 365 674 z "},"ê":{"ha":785,"x_min":0,"x_max":0,"o":"m 418 953 l 629 786 l 661 829 l 418 1078 l 175 829 l 207 786 z m 532 71 b 344 342 440 71 363 161 b 340 403 343 363 340 383 l 754 403 b 404 715 754 592 589 715 b 32 333 193 715 32 558 b 429 -21 40 122 200 -21 b 751 196 679 -21 735 140 l 710 221 b 532 71 678 144 608 71 z m 410 674 b 476 451 443 674 478 619 l 339 451 b 410 674 339 582 365 674 z "},"ë":{"ha":785,"x_min":0,"x_max":0,"o":"m 272 786 b 367 882 321 786 367 822 b 272 976 367 940 321 976 b 178 882 224 976 178 940 b 272 786 178 822 224 786 z m 542 786 b 635 882 589 786 635 822 b 542 976 635 940 589 976 b 446 882 492 976 446 939 b 542 786 446 822 492 786 z m 532 71 b 344 342 440 71 363 161 b 340 403 343 363 340 383 l 754 403 b 404 715 754 592 589 715 b 32 333 193 715 32 558 b 429 -21 40 122 200 -21 b 751 196 679 -21 735 140 l 710 221 b 532 71 678 144 608 71 z m 410 674 b 476 451 443 674 478 619 l 339 451 b 410 674 339 582 365 674 z "},"è":{"ha":785,"x_min":0,"x_max":0,"o":"m 583 829 l 340 1078 l 278 1003 l 551 786 z m 532 71 b 344 342 440 71 363 161 b 340 403 343 363 340 383 l 754 403 b 404 715 754 592 589 715 b 32 333 193 715 32 558 b 429 -21 40 122 200 -21 b 751 196 679 -21 735 140 l 710 221 b 532 71 678 144 608 71 z m 410 674 b 476 451 443 674 478 619 l 339 451 b 410 674 339 582 365 674 z "},"f":{"ha":539,"x_min":0,"x_max":0,"o":"m 21 0 l 465 0 l 465 28 b 410 117 431 29 410 36 l 410 646 l 551 646 l 551 694 l 394 694 b 263 826 303 694 263 763 b 354 943 263 886 296 943 b 592 713 435 943 549 849 l 619 713 l 578 929 b 382 994 519 978 450 994 b 104 760 239 994 104 904 l 104 694 l 26 694 l 26 646 l 104 646 l 104 117 b 21 28 104 36 56 29 z "},"g":{"ha":951,"x_min":0,"x_max":0,"o":"m 344 200 b 383 242 344 221 363 233 b 494 235 418 238 454 235 b 868 465 753 235 868 322 b 756 646 868 544 832 607 l 928 646 l 928 694 l 496 694 l 494 694 b 119 465 263 694 119 608 b 276 269 119 375 176 307 b 136 146 206 256 136 221 b 189 61 136 104 157 78 b 18 -97 97 36 18 -11 b 485 -299 18 -275 264 -299 b 929 -78 711 -299 929 -251 b 344 200 929 206 344 118 z m 494 646 b 563 465 544 646 563 589 b 494 283 563 346 544 283 b 425 465 444 283 425 347 b 494 646 425 589 444 646 z m 478 -254 b 331 -86 406 -254 331 -208 b 379 24 331 -33 349 0 b 614 -107 497 13 614 -1 b 478 -254 614 -214 547 -254 z "},"h":{"ha":956,"x_min":0,"x_max":0,"o":"m 19 0 l 464 0 l 464 28 b 408 117 429 31 408 36 l 408 419 b 494 608 408 554 446 608 b 563 450 531 608 563 574 l 563 117 b 507 28 563 38 556 32 l 507 0 l 951 0 l 951 28 b 868 117 901 29 868 36 l 868 482 b 604 715 868 647 731 715 b 408 606 521 715 442 679 l 408 972 l 19 972 l 19 944 b 103 856 56 943 103 936 l 103 117 b 19 28 103 36 54 31 z "},"i":{"ha":503,"x_min":0,"x_max":0,"o":"m 260 821 b 411 957 336 821 411 867 b 260 1101 411 1053 335 1101 b 110 960 183 1101 110 1054 b 260 821 110 867 185 821 z m 19 0 l 492 0 l 492 28 b 408 117 457 29 408 36 l 408 694 l 19 694 l 19 667 b 103 578 54 665 103 658 l 103 117 b 19 28 103 36 54 29 z "},"í":{"ha":503,"x_min":0,"x_max":0,"o":"m 383 1003 l 321 1078 l 78 829 l 110 786 z m 19 0 l 492 0 l 492 28 b 408 117 457 29 408 36 l 408 694 l 19 694 l 19 667 b 103 578 54 665 103 658 l 103 117 b 19 28 103 36 54 29 z "},"î":{"ha":504,"x_min":0,"x_max":0,"o":"m 492 829 l 249 1078 l 6 829 l 38 786 l 249 953 l 460 786 z m 21 0 l 493 0 l 493 28 b 410 117 458 29 410 36 l 410 694 l 21 694 l 21 667 b 104 578 56 665 104 658 l 104 117 b 21 28 104 36 56 29 z "},"ï":{"ha":503,"x_min":0,"x_max":0,"o":"m 203 910 b 108 1004 203 968 157 1004 b 14 910 60 1004 14 968 b 108 814 14 850 60 814 b 203 910 157 814 203 850 z m 471 910 b 378 1004 471 968 425 1004 b 282 910 328 1004 282 967 b 378 814 282 850 328 814 b 471 910 425 814 471 850 z m 19 0 l 492 0 l 492 28 b 408 117 457 29 408 36 l 408 694 l 19 694 l 19 667 b 103 578 54 665 103 658 l 103 117 b 19 28 103 36 54 29 z "},"ì":{"ha":503,"x_min":0,"x_max":0,"o":"m 90 1003 l 364 786 l 396 829 l 153 1078 z m 19 0 l 492 0 l 492 28 b 408 117 457 29 408 36 l 408 694 l 19 694 l 19 667 b 103 578 54 665 103 658 l 103 117 b 19 28 103 36 54 29 z "},"j":{"ha":486,"x_min":0,"x_max":0,"o":"m 250 821 b 401 957 326 821 401 867 b 250 1101 401 1053 325 1101 b 100 960 174 1101 100 1054 b 250 821 100 867 175 821 z m 111 -299 b 401 -17 310 -299 401 -208 l 401 694 l 13 694 l 13 667 b 96 578 47 665 96 658 l 96 -17 b -18 -212 96 -147 43 -212 b -128 -137 -54 -212 -94 -187 l -169 -162 b 111 -299 -118 -253 -53 -299 z "},"k":{"ha":976,"x_min":0,"x_max":0,"o":"m 11 0 l 456 0 l 456 28 b 400 117 421 31 400 36 l 400 397 l 421 411 l 553 74 b 499 28 568 35 539 28 l 499 0 l 989 0 l 989 28 b 869 94 943 28 892 38 l 681 585 l 699 596 b 929 667 806 660 879 667 l 929 694 l 629 694 l 629 667 b 628 610 669 665 678 644 l 400 456 l 400 856 b 483 944 400 938 432 944 l 483 972 l 11 972 l 11 944 b 94 856 47 943 94 936 l 94 117 b 11 28 94 36 46 31 z "},"l":{"ha":494,"x_min":0,"x_max":0,"o":"m 11 0 l 483 0 l 483 28 b 400 117 449 29 400 36 l 400 972 l 11 972 l 11 944 b 94 856 46 943 94 936 l 94 117 b 11 28 94 36 46 29 z "},"m":{"ha":1347,"x_min":0,"x_max":0,"o":"m 15 0 l 460 0 l 460 28 b 404 117 425 29 404 36 l 404 407 b 472 599 404 560 439 599 b 531 438 503 599 532 574 l 526 117 b 471 28 525 38 519 31 l 471 0 l 888 0 l 888 28 b 832 117 839 31 832 36 l 832 407 b 900 599 832 560 867 599 b 958 438 931 599 960 574 l 954 117 b 899 28 953 38 947 31 l 899 0 l 1343 0 l 1343 28 b 1260 117 1293 28 1260 36 l 1260 482 b 1007 718 1260 629 1128 718 b 813 574 928 718 849 679 b 579 718 772 665 672 718 b 404 615 507 718 439 686 l 404 694 l 43 694 l 43 667 b 99 578 79 665 99 658 l 99 117 b 15 28 99 36 50 29 z "},"n":{"ha":956,"x_min":0,"x_max":0,"o":"m 868 117 l 868 482 b 604 715 868 647 731 715 b 408 606 521 715 442 679 l 408 694 l 19 694 l 19 667 b 103 578 56 665 103 658 l 103 117 b 19 28 103 36 54 31 l 19 0 l 464 0 l 464 28 b 408 117 429 31 408 36 l 408 419 b 494 608 408 574 446 608 b 563 450 531 608 563 593 l 563 117 b 507 28 563 38 556 32 l 507 0 l 951 0 l 951 28 b 868 117 901 29 868 36 z "},"ñ":{"ha":956,"x_min":0,"x_max":0,"o":"m 410 919 b 632 786 469 919 549 786 b 714 1026 693 786 714 821 l 686 1026 b 640 926 686 939 668 926 b 424 1060 593 926 501 1060 b 336 819 357 1060 336 1011 l 364 819 b 410 919 364 907 382 919 z m 868 117 l 868 482 b 604 715 868 647 731 715 b 408 606 521 715 442 679 l 408 694 l 19 694 l 19 667 b 103 578 56 665 103 658 l 103 117 b 19 28 103 36 54 31 l 19 0 l 464 0 l 464 28 b 408 117 429 31 408 36 l 408 419 b 494 608 408 574 446 608 b 563 450 531 608 563 593 l 563 117 b 507 28 563 38 556 32 l 507 0 l 951 0 l 951 28 b 868 117 901 29 868 36 z "},"o":{"ha":865,"x_min":0,"x_max":0,"o":"m 433 -21 b 831 342 668 -21 831 111 b 433 715 831 572 682 715 b 33 342 199 715 33 572 b 433 -21 33 111 199 -21 z m 432 22 b 346 342 375 22 346 60 b 432 674 346 617 375 674 b 518 342 489 674 518 619 b 432 22 518 58 489 22 z "},"ó":{"ha":865,"x_min":0,"x_max":0,"o":"m 572 1003 l 510 1078 l 267 829 l 299 786 z m 433 -21 b 831 342 668 -21 831 111 b 433 715 831 572 682 715 b 33 342 199 715 33 572 b 433 -21 33 111 199 -21 z m 432 22 b 346 342 375 22 346 60 b 432 674 346 617 375 674 b 518 342 489 674 518 619 b 432 22 518 58 489 22 z "},"ô":{"ha":865,"x_min":0,"x_max":0,"o":"m 685 829 l 442 1078 l 199 829 l 231 786 l 442 953 l 653 786 z m 433 -21 b 831 342 668 -21 831 111 b 433 715 831 572 682 715 b 33 342 199 715 33 572 b 433 -21 33 111 199 -21 z m 432 22 b 346 342 375 22 346 60 b 432 674 346 617 375 674 b 518 342 489 674 518 619 b 432 22 518 58 489 22 z "},"ö":{"ha":865,"x_min":0,"x_max":0,"o":"m 390 882 b 296 976 390 940 344 976 b 201 882 247 976 201 940 b 296 786 201 822 247 786 b 390 882 344 786 390 822 z m 658 882 b 565 976 658 940 613 976 b 469 882 515 976 469 939 b 565 786 469 822 515 786 b 658 882 613 786 658 822 z m 433 -21 b 831 342 668 -21 831 111 b 433 715 831 572 682 715 b 33 342 199 715 33 572 b 433 -21 33 111 199 -21 z m 432 22 b 346 342 375 22 346 60 b 432 674 346 617 375 674 b 518 342 489 674 518 619 b 432 22 518 58 489 22 z "},"ò":{"ha":865,"x_min":0,"x_max":0,"o":"m 292 1003 l 565 786 l 597 829 l 354 1078 z m 433 -21 b 831 342 668 -21 831 111 b 433 715 831 572 682 715 b 33 342 199 715 33 572 b 433 -21 33 111 199 -21 z m 432 22 b 346 342 375 22 346 60 b 432 674 346 617 375 674 b 518 342 489 674 518 619 b 432 22 518 58 489 22 z "},"ø":{"ha":865,"x_min":0,"x_max":0,"o":"m 617 683 l 665 779 l 611 782 l 569 699 b 433 715 528 710 483 715 b 33 342 199 715 33 572 b 228 21 33 188 108 76 l 178 -78 l 235 -78 l 275 3 b 433 -21 322 -12 376 -21 b 831 342 668 -21 831 111 b 617 683 831 508 753 629 z m 346 342 b 432 674 346 617 375 674 b 506 572 467 674 492 653 l 347 258 b 346 342 346 283 346 311 z m 432 22 b 353 157 392 22 364 42 l 515 479 b 518 342 517 442 518 396 b 432 22 518 58 489 22 z "},"õ":{"ha":865,"x_min":0,"x_max":0,"o":"m 332 919 b 554 786 392 919 471 786 b 636 1026 615 786 636 821 l 608 1026 b 563 926 608 939 590 926 b 346 1060 515 926 424 1060 b 258 819 279 1060 258 1011 l 286 819 b 332 919 286 907 304 919 z m 433 -21 b 831 342 668 -21 831 111 b 433 715 831 572 682 715 b 33 342 199 715 33 572 b 433 -21 33 111 199 -21 z m 432 22 b 346 342 375 22 346 60 b 432 674 346 617 375 674 b 518 342 489 674 518 619 b 432 22 518 58 489 22 z "},"œ":{"ha":1269,"x_min":0,"x_max":0,"o":"m 433 -21 b 674 68 526 -21 644 24 b 914 -21 703 24 808 -21 b 1238 196 1092 -21 1186 58 l 1196 221 b 1024 79 1156 124 1089 79 b 831 344 907 79 831 176 l 831 403 l 1240 403 b 890 715 1240 592 1075 715 b 678 625 810 715 707 669 b 433 715 649 669 531 715 b 33 342 199 715 33 572 b 433 -21 33 111 199 -21 z m 432 22 b 346 342 375 22 346 60 b 432 674 346 617 375 674 b 518 342 489 674 518 619 b 432 22 518 58 489 22 z m 832 451 b 889 674 836 617 853 674 b 960 451 924 674 951 619 z "},"p":{"ha":906,"x_min":0,"x_max":0,"o":"m 8 -278 l 481 -278 l 481 -264 b 397 -161 447 -254 397 -242 l 397 100 b 594 -21 446 26 515 -21 b 861 342 763 -21 861 139 b 594 715 861 544 764 715 b 397 594 515 715 446 669 l 397 694 l 8 694 l 8 681 b 92 578 42 671 92 658 l 92 -161 b 8 -264 92 -242 42 -254 z m 474 96 b 397 342 443 96 397 181 b 475 606 397 513 444 606 b 549 342 514 606 549 524 b 474 96 549 176 513 96 z "},"þ":{"ha":907,"x_min":0,"x_max":0,"o":"m 19 -278 l 464 -278 l 464 -250 b 408 -161 429 -247 408 -242 l 408 100 b 606 -21 457 25 526 -21 b 872 342 774 -21 872 139 b 606 715 872 544 775 715 b 408 594 526 715 457 669 l 408 972 l 19 972 l 19 944 b 103 856 56 943 103 936 l 103 -161 b 19 -250 103 -242 54 -247 z m 408 342 b 486 606 408 513 456 606 b 560 342 517 606 560 524 b 485 96 560 176 515 96 b 408 342 454 96 408 181 z "},"q":{"ha":899,"x_min":0,"x_max":0,"o":"m 425 -278 l 897 -278 l 897 -264 b 814 -161 863 -254 814 -242 l 814 715 l 807 715 l 515 583 b 311 715 467 664 393 715 b 44 353 143 715 44 556 b 311 -21 44 150 142 -21 b 508 100 390 -21 460 25 l 508 -161 b 425 -264 508 -242 460 -254 z m 431 89 b 357 353 392 89 357 171 b 432 599 357 518 393 599 b 508 353 463 599 508 514 b 431 89 508 182 461 89 z "},"r":{"ha":760,"x_min":0,"x_max":0,"o":"m 707 622 b 556 715 676 672 618 715 b 408 621 506 715 450 685 l 408 694 l 19 694 l 19 667 b 103 578 56 665 103 658 l 103 117 b 19 28 103 36 54 29 l 19 0 l 464 0 l 464 28 b 408 117 429 29 408 36 l 408 272 b 522 647 408 514 451 647 b 682 365 583 647 611 571 l 739 365 z "},"s":{"ha":825,"x_min":0,"x_max":0,"o":"m 429 -21 b 790 203 607 -21 790 40 b 563 436 790 333 676 392 b 357 592 449 481 357 513 b 439 665 357 631 386 665 b 700 410 543 665 639 565 l 749 410 l 707 654 b 413 714 621 694 501 714 b 79 497 243 714 79 653 b 293 265 79 383 172 321 b 513 106 424 206 513 174 b 411 29 513 53 475 29 b 86 344 319 29 171 115 l 38 344 l 75 82 b 429 -21 139 10 294 -21 z "},"ß":{"ha":1013,"x_min":0,"x_max":0,"o":"m 26 0 l 415 0 l 415 751 b 499 943 415 904 458 943 b 588 799 538 943 588 894 b 472 526 588 642 472 639 b 692 178 472 350 692 374 b 621 49 692 90 660 49 l 619 49 b 486 313 563 49 500 147 l 458 313 l 458 0 l 715 0 b 983 185 836 0 983 49 b 539 533 983 494 539 394 b 883 793 539 657 883 554 b 506 993 883 932 697 993 b 110 743 308 993 110 938 l 110 110 b 26 28 110 35 60 29 z "},"t":{"ha":626,"x_min":0,"x_max":0,"o":"m 593 135 b 499 69 564 92 531 69 b 400 261 446 69 400 132 l 400 646 l 588 646 l 588 694 l 400 694 l 400 972 l 358 972 b -7 694 350 788 261 694 l -7 646 l 94 646 l 94 261 b 374 -24 94 89 225 -24 b 628 100 488 -24 561 1 z "},"u":{"ha":919,"x_min":0,"x_max":0,"o":"m 340 -21 b 519 88 415 -21 486 11 l 519 0 l 908 0 l 908 28 b 825 117 872 29 825 36 l 825 694 l 464 694 l 464 667 b 519 578 499 665 519 658 l 519 275 b 454 83 519 122 485 83 b 393 244 421 83 393 108 l 393 694 l 4 694 l 4 667 b 88 578 54 667 88 658 l 88 213 b 340 -21 88 65 219 -21 z "},"ú":{"ha":919,"x_min":0,"x_max":0,"o":"m 589 1003 l 526 1078 l 283 829 l 315 786 z m 340 -21 b 519 88 415 -21 486 11 l 519 0 l 908 0 l 908 28 b 825 117 872 29 825 36 l 825 694 l 464 694 l 464 667 b 519 578 499 665 519 658 l 519 275 b 454 83 519 122 485 83 b 393 244 421 83 393 108 l 393 694 l 4 694 l 4 667 b 88 578 54 667 88 658 l 88 213 b 340 -21 88 65 219 -21 z "},"û":{"ha":919,"x_min":0,"x_max":0,"o":"m 679 829 l 436 1078 l 193 829 l 225 786 l 436 953 l 647 786 z m 340 -21 b 519 88 415 -21 486 11 l 519 0 l 908 0 l 908 28 b 825 117 872 29 825 36 l 825 694 l 464 694 l 464 667 b 519 578 499 665 519 658 l 519 275 b 454 83 519 122 485 83 b 393 244 421 83 393 108 l 393 694 l 4 694 l 4 667 b 88 578 54 667 88 658 l 88 213 b 340 -21 88 65 219 -21 z "},"ü":{"ha":919,"x_min":0,"x_max":0,"o":"m 399 882 b 304 976 399 940 353 976 b 210 882 256 976 210 940 b 304 786 210 822 256 786 b 399 882 353 786 399 822 z m 667 882 b 574 976 667 940 621 976 b 478 882 524 976 478 939 b 574 786 478 822 524 786 b 667 882 621 786 667 822 z m 340 -21 b 519 88 415 -21 486 11 l 519 0 l 908 0 l 908 28 b 825 117 872 29 825 36 l 825 694 l 464 694 l 464 667 b 519 578 499 665 519 658 l 519 275 b 454 83 519 122 485 83 b 393 244 421 83 393 108 l 393 694 l 4 694 l 4 667 b 88 578 54 667 88 658 l 88 213 b 340 -21 88 65 219 -21 z "},"ù":{"ha":919,"x_min":0,"x_max":0,"o":"m 283 1003 l 557 786 l 589 829 l 346 1078 z m 340 -21 b 519 88 415 -21 486 11 l 519 0 l 908 0 l 908 28 b 825 117 872 29 825 36 l 825 694 l 464 694 l 464 667 b 519 578 499 665 519 658 l 519 275 b 454 83 519 122 485 83 b 393 244 421 83 393 108 l 393 694 l 4 694 l 4 667 b 88 578 54 667 88 658 l 88 213 b 340 -21 88 65 219 -21 z "},"v":{"ha":858,"x_min":0,"x_max":0,"o":"m 876 694 l 654 694 l 654 667 b 689 596 700 665 717 658 l 578 372 l 464 589 b 493 667 431 658 446 665 l 493 694 l -18 694 l -18 667 b 118 593 29 665 88 653 l 436 -21 l 738 585 b 876 667 778 658 828 665 z "},"w":{"ha":1401,"x_min":0,"x_max":0,"o":"m 436 -21 l 704 578 l 1015 -21 l 1288 586 b 1419 667 1321 661 1371 665 l 1419 694 l 1197 694 l 1197 667 b 1235 590 1244 665 1264 658 l 1147 390 l 1043 589 b 1072 667 1007 657 1025 665 l 1072 694 l 618 694 l 618 667 b 656 590 665 665 685 658 l 568 390 l 464 589 b 493 667 428 657 446 665 l 493 694 l -18 694 l -18 667 b 118 593 29 665 82 663 z "},"ẃ":{"ha":1401,"x_min":0,"x_max":0,"o":"m 894 1003 l 832 1078 l 589 829 l 621 786 z m 436 -21 l 704 578 l 1015 -21 l 1288 586 b 1419 667 1321 661 1371 665 l 1419 694 l 1197 694 l 1197 667 b 1235 590 1244 665 1264 658 l 1147 390 l 1043 589 b 1072 667 1007 657 1025 665 l 1072 694 l 618 694 l 618 667 b 656 590 665 665 685 658 l 568 390 l 464 589 b 493 667 428 657 446 665 l 493 694 l -18 694 l -18 667 b 118 593 29 665 82 663 z "},"ŵ":{"ha":1401,"x_min":0,"x_max":0,"o":"m 1057 829 l 814 1078 l 571 829 l 603 786 l 814 953 l 1025 786 z m 436 -21 l 704 578 l 1015 -21 l 1288 586 b 1419 667 1321 661 1371 665 l 1419 694 l 1197 694 l 1197 667 b 1235 590 1244 665 1264 658 l 1147 390 l 1043 589 b 1072 667 1007 657 1025 665 l 1072 694 l 618 694 l 618 667 b 656 590 665 665 685 658 l 568 390 l 464 589 b 493 667 428 657 446 665 l 493 694 l -18 694 l -18 667 b 118 593 29 665 82 663 z "},"ẅ":{"ha":1401,"x_min":0,"x_max":0,"o":"m 772 882 b 678 976 772 940 726 976 b 583 882 629 976 583 940 b 678 786 583 822 629 786 b 772 882 726 786 772 822 z m 1040 882 b 947 976 1040 940 994 976 b 851 882 897 976 851 939 b 947 786 851 822 897 786 b 1040 882 994 786 1040 822 z m 436 -21 l 704 578 l 1015 -21 l 1288 586 b 1419 667 1321 661 1371 665 l 1419 694 l 1197 694 l 1197 667 b 1235 590 1244 665 1264 658 l 1147 390 l 1043 589 b 1072 667 1007 657 1025 665 l 1072 694 l 618 694 l 618 667 b 656 590 665 665 685 658 l 568 390 l 464 589 b 493 667 428 657 446 665 l 493 694 l -18 694 l -18 667 b 118 593 29 665 82 663 z "},"ẁ":{"ha":1401,"x_min":0,"x_max":0,"o":"m 671 1003 l 944 786 l 976 829 l 733 1078 z m 436 -21 l 704 578 l 1015 -21 l 1288 586 b 1419 667 1321 661 1371 665 l 1419 694 l 1197 694 l 1197 667 b 1235 590 1244 665 1264 658 l 1147 390 l 1043 589 b 1072 667 1007 657 1025 665 l 1072 694 l 618 694 l 618 667 b 656 590 665 665 685 658 l 568 390 l 464 589 b 493 667 428 657 446 665 l 493 694 l -18 694 l -18 667 b 118 593 29 665 82 663 z "},"x":{"ha":858,"x_min":0,"x_max":0,"o":"m 17 0 l 243 0 l 243 28 b 222 93 199 29 185 38 l 318 235 l 390 101 b 360 28 426 36 406 29 l 360 0 l 872 0 l 872 28 b 735 100 825 29 772 29 l 554 442 l 654 589 b 810 667 706 664 763 665 l 810 694 l 583 694 l 583 667 b 596 590 631 665 642 657 l 528 490 l 476 588 b 503 667 442 658 456 665 l 503 694 l -8 694 l -8 667 b 131 590 39 665 92 664 l 293 283 l 172 106 b 17 28 121 31 64 29 z "},"y":{"ha":778,"x_min":0,"x_max":0,"o":"m 261 -278 l 465 -278 l 465 -250 b 419 -174 418 -249 397 -242 l 689 590 b 796 667 714 660 749 665 l 796 694 l 592 694 l 592 667 b 638 590 639 665 660 658 l 565 386 l 457 599 b 492 667 429 658 447 665 l 492 694 l -18 694 l -18 667 b 121 585 31 665 81 658 l 425 -11 l 368 -174 b 261 -250 343 -246 308 -249 z "},"ý":{"ha":778,"x_min":0,"x_max":0,"o":"m 578 1003 l 515 1078 l 272 829 l 304 786 z m 261 -278 l 465 -278 l 465 -250 b 419 -174 418 -249 397 -242 l 689 590 b 796 667 714 660 749 665 l 796 694 l 592 694 l 592 667 b 638 590 639 665 660 658 l 565 386 l 457 599 b 492 667 429 658 447 665 l 492 694 l -18 694 l -18 667 b 121 585 31 665 81 658 l 425 -11 l 368 -174 b 261 -250 343 -246 308 -249 z "},"ŷ":{"ha":778,"x_min":0,"x_max":0,"o":"m 679 829 l 436 1078 l 193 829 l 225 786 l 436 953 l 647 786 z m 261 -278 l 465 -278 l 465 -250 b 419 -174 418 -249 397 -242 l 689 590 b 796 667 714 660 749 665 l 796 694 l 592 694 l 592 667 b 638 590 639 665 660 658 l 565 386 l 457 599 b 492 667 429 658 447 665 l 492 694 l -18 694 l -18 667 b 121 585 31 665 81 658 l 425 -11 l 368 -174 b 261 -250 343 -246 308 -249 z "},"ÿ":{"ha":778,"x_min":0,"x_max":0,"o":"m 390 908 b 296 1003 390 967 344 1003 b 201 908 247 1003 201 967 b 296 813 201 849 247 813 b 390 908 344 813 390 849 z m 658 908 b 565 1003 658 967 613 1003 b 469 908 515 1003 469 965 b 565 813 469 849 515 813 b 658 908 613 813 658 849 z m 261 -278 l 465 -278 l 465 -250 b 419 -174 418 -249 397 -242 l 689 590 b 796 667 714 660 749 665 l 796 694 l 592 694 l 592 667 b 638 590 639 665 660 658 l 565 386 l 457 599 b 492 667 429 658 447 665 l 492 694 l -18 694 l -18 667 b 121 585 31 665 81 658 l 425 -11 l 368 -174 b 261 -250 343 -246 308 -249 z "},"ỳ":{"ha":778,"x_min":0,"x_max":0,"o":"m 278 1003 l 551 786 l 583 829 l 340 1078 z m 261 -278 l 465 -278 l 465 -250 b 419 -174 418 -249 397 -242 l 689 590 b 796 667 714 660 749 665 l 796 694 l 592 694 l 592 667 b 638 590 639 665 660 658 l 565 386 l 457 599 b 492 667 429 658 447 665 l 492 694 l -18 694 l -18 667 b 121 585 31 665 81 658 l 425 -11 l 368 -174 b 261 -250 343 -246 308 -249 z "},"z":{"ha":786,"x_min":0,"x_max":0,"o":"m 13 0 l 735 0 l 749 181 l 721 181 b 574 49 711 104 654 49 l 396 49 l 774 694 l 51 694 l 38 514 l 65 514 b 213 646 75 590 132 646 l 390 646 z "},"μ":{"ha":919,"x_min":0,"x_max":0,"o":"m 825 117 l 825 694 l 519 694 l 519 317 b 451 117 519 185 485 117 b 393 286 421 117 393 172 l 393 694 l 88 694 l 88 -276 l 393 -276 l 393 -14 b 519 129 447 0 494 39 l 519 0 l 908 0 l 908 28 b 825 117 872 29 825 36 z "},"⁄":{"ha":833,"x_min":0,"x_max":0,"o":"m 558 972 l 28 0 l 131 0 l 661 972 z "},".":{"ha":443,"x_min":0,"x_max":0,"o":"m 222 -21 b 344 92 283 -21 344 17 b 221 210 344 171 283 210 b 97 94 158 210 97 172 b 222 -21 97 17 158 -21 z "},",":{"ha":363,"x_min":0,"x_max":0,"o":"m 88 -232 b 278 74 260 -167 285 -21 b 179 172 274 135 229 172 b 83 76 126 172 83 133 b 179 -21 83 18 129 -21 b 218 -12 193 -21 206 -18 b 78 -199 226 -81 171 -162 z "},":":{"ha":422,"x_min":0,"x_max":0,"o":"m 213 371 b 335 483 274 371 335 408 b 211 601 335 563 274 601 b 88 486 149 601 88 564 b 213 371 88 408 149 371 z m 213 -21 b 335 92 274 -21 335 17 b 211 210 335 171 274 210 b 88 94 149 210 88 172 b 213 -21 88 17 149 -21 z "},";":{"ha":388,"x_min":0,"x_max":0,"o":"m 197 410 b 319 522 258 410 319 447 b 196 640 319 601 258 640 b 72 525 133 640 72 603 b 197 410 72 447 133 410 z m 88 -253 b 297 83 278 -181 306 -21 b 189 192 293 151 244 192 b 83 88 131 192 83 150 b 189 -21 83 22 133 -21 b 232 -11 204 -21 218 -17 b 78 -215 240 -86 179 -176 z "},"…":{"ha":1082,"x_min":0,"x_max":0,"o":"m 222 -21 b 344 92 283 -21 344 17 b 221 210 344 171 283 210 b 97 94 158 210 97 172 b 222 -21 97 17 158 -21 z m 542 -21 b 664 92 603 -21 664 17 b 540 210 664 171 603 210 b 417 94 478 210 417 172 b 542 -21 417 17 478 -21 z m 861 -21 b 983 92 922 -21 983 17 b 860 210 983 171 922 210 b 736 94 797 210 736 172 b 861 -21 736 17 797 -21 z "},"!":{"ha":504,"x_min":0,"x_max":0,"o":"m 144 318 l 353 318 l 450 972 l 47 972 z m 254 -21 b 376 92 315 -21 376 17 b 253 210 376 171 315 210 b 129 94 190 210 129 172 b 254 -21 129 17 190 -21 z "},"¡":{"ha":510,"x_min":0,"x_max":0,"o":"m 260 715 b 135 600 196 715 135 678 b 258 485 135 522 196 485 b 382 603 321 485 382 524 b 260 715 382 678 321 715 z m 150 376 l 53 -278 l 456 -278 l 358 376 z "},"?":{"ha":790,"x_min":0,"x_max":0,"o":"m 372 217 b 532 386 479 217 532 286 l 483 386 b 411 296 482 324 444 296 b 340 364 381 296 340 321 b 756 757 340 501 756 478 b 400 992 756 929 583 992 b 65 885 265 992 117 950 l 36 653 l 92 653 b 351 940 149 828 253 940 b 450 774 408 940 450 890 b 196 368 450 526 196 594 b 372 217 196 276 264 217 z m 367 -21 b 463 76 417 -21 463 18 b 367 172 463 135 417 172 b 271 76 314 172 271 133 b 367 -21 271 18 317 -21 z "},"¿":{"ha":790,"x_min":0,"x_max":0,"o":"m 415 735 b 319 638 365 735 319 696 b 415 542 319 579 365 542 b 511 638 468 542 511 581 b 415 735 511 696 465 735 z m 410 497 b 250 328 303 497 250 428 l 299 328 b 371 418 300 390 338 418 b 442 350 401 418 442 393 b 26 -43 442 213 26 236 b 382 -278 26 -215 199 -278 b 717 -171 517 -278 665 -236 l 746 61 l 690 61 b 431 -226 633 -114 529 -226 b 332 -60 374 -226 332 -176 b 586 346 332 188 586 119 b 410 497 586 438 518 497 z "},"·":{"ha":443,"x_min":0,"x_max":0,"o":"m 222 229 b 344 342 283 229 344 267 b 221 460 344 421 283 460 b 97 344 158 460 97 422 b 222 229 97 267 158 229 z "},"•":{"ha":599,"x_min":0,"x_max":0,"o":"m 301 169 b 517 367 408 169 517 235 b 299 575 517 507 408 575 b 82 372 189 575 82 510 b 301 169 82 235 189 169 z "},"*":{"ha":685,"x_min":0,"x_max":0,"o":"m 619 788 l 578 876 l 368 753 l 390 992 l 293 992 l 315 757 l 106 881 l 64 792 l 282 714 l 65 635 l 106 547 l 315 671 l 293 425 l 390 425 l 367 675 l 578 551 l 619 639 l 413 714 z "},"#":{"ha":871,"x_min":0,"x_max":0,"o":"m 825 535 l 825 597 l 719 597 l 792 847 l 635 847 l 563 597 l 400 597 l 472 847 l 315 847 l 243 597 l 104 597 l 104 535 l 225 535 l 164 319 l 49 319 l 49 257 l 146 257 l 72 0 l 229 0 l 303 257 l 465 257 l 392 0 l 549 0 l 622 257 l 763 257 l 763 319 l 640 319 l 701 535 z m 483 319 l 321 319 l 382 535 l 544 535 z "},"/":{"ha":379,"x_min":0,"x_max":0,"o":"m 294 1003 l -10 -14 l 85 -14 l 389 1003 z "},"\\":{"ha":379,"x_min":0,"x_max":0,"o":"m 85 1003 l -10 1003 l 294 -14 l 389 -14 z "},"(":{"ha":399,"x_min":0,"x_max":0,"o":"m 361 -135 l 394 -97 b 189 458 222 40 188 244 b 394 1015 190 674 222 879 l 364 1053 b 36 458 168 917 38 701 b 361 -135 35 215 168 3 z "},")":{"ha":397,"x_min":0,"x_max":0,"o":"m 36 -135 b 361 458 229 3 363 215 b 33 1053 360 701 229 917 l 3 1015 b 208 458 175 879 207 674 b 3 -97 210 244 175 40 z "},"{":{"ha":457,"x_min":0,"x_max":0,"o":"m 39 342 b 231 222 169 342 231 296 b 69 -83 231 139 69 44 b 400 -307 69 -244 261 -307 l 457 -307 l 457 -258 l 403 -258 b 211 -87 281 -258 211 -218 b 308 217 211 58 308 104 b 115 369 308 325 193 368 b 308 522 193 371 308 414 b 211 828 308 635 211 682 b 403 997 211 958 281 997 l 457 997 l 457 1046 l 400 1046 b 69 822 261 1046 69 983 b 231 517 69 694 231 600 b 39 397 231 443 169 397 z "},"}":{"ha":457,"x_min":0,"x_max":0,"o":"m 418 342 l 418 397 b 226 517 288 397 226 443 b 388 822 226 600 388 694 b 57 1046 388 983 196 1046 l 0 1046 l 0 997 l 54 997 b 246 828 176 997 246 958 b 149 522 246 682 149 635 b 342 369 149 414 264 371 b 149 217 264 368 149 325 b 246 -87 149 104 246 58 b 54 -258 246 -218 176 -258 l 0 -258 l 0 -307 l 57 -307 b 388 -83 196 -307 388 -244 b 226 222 388 44 226 139 b 418 342 226 296 288 342 z "},"[":{"ha":492,"x_min":0,"x_max":0,"o":"m 488 1061 l 488 1110 l 103 1110 l 103 -151 l 488 -151 l 488 -103 l 253 -103 l 253 1061 z "},"]":{"ha":492,"x_min":0,"x_max":0,"o":"m 4 -151 l 389 -151 l 389 1110 l 4 1110 l 4 1061 l 239 1061 l 239 -103 l 4 -103 z "},"-":{"ha":603,"x_min":0,"x_max":0,"o":"m 85 397 l 85 314 l 518 314 l 518 397 z "},"–":{"ha":700,"x_min":0,"x_max":0,"o":"m 85 397 l 85 314 l 615 314 l 615 397 z "},"—":{"ha":936,"x_min":0,"x_max":0,"o":"m 85 397 l 85 314 l 851 314 l 851 397 z "},"_":{"ha":658,"x_min":0,"x_max":0,"o":"m 85 -19 l 85 -89 l 574 -89 l 574 -19 z "},"‚":{"ha":329,"x_min":0,"x_max":0,"o":"m 71 -232 b 261 74 243 -167 268 -21 b 163 172 257 135 213 172 b 67 76 110 172 67 133 b 163 -21 67 18 113 -21 b 201 -12 176 -21 189 -18 b 61 -199 210 -81 154 -162 z "},"„":{"ha":607,"x_min":0,"x_max":0,"o":"m 71 -232 b 261 74 243 -167 268 -21 b 163 172 257 135 213 172 b 67 76 110 172 67 133 b 163 -21 67 18 113 -21 b 201 -12 176 -21 189 -18 b 61 -199 210 -81 154 -162 z m 349 -232 b 539 74 521 -167 546 -21 b 440 172 535 135 490 172 b 344 76 388 172 344 133 b 440 -21 344 18 390 -21 b 479 -12 454 -21 467 -18 b 339 -199 488 -81 432 -162 z "},"“":{"ha":593,"x_min":0,"x_max":0,"o":"m 232 992 b 72 726 85 929 65 821 b 171 628 76 665 121 628 b 267 724 224 628 267 667 b 171 821 267 782 221 821 b 132 813 157 821 144 818 b 242 958 135 881 169 917 z m 496 992 b 336 726 349 929 329 821 b 435 628 340 665 385 628 b 531 724 488 628 531 667 b 435 821 531 782 485 821 b 396 813 421 821 408 818 b 506 958 399 881 433 917 z "},"”":{"ha":593,"x_min":0,"x_max":0,"o":"m 97 628 b 257 893 244 690 264 799 b 158 992 253 954 208 992 b 63 896 106 992 63 953 b 158 799 63 838 108 799 b 197 807 172 799 185 801 b 88 661 194 739 160 703 z m 361 628 b 521 893 508 690 528 799 b 422 992 517 954 472 992 b 326 896 369 992 326 953 b 422 799 326 838 372 799 b 461 807 436 799 449 801 b 351 661 458 739 424 703 z "},"‘":{"ha":333,"x_min":0,"x_max":0,"o":"m 126 644 b 278 893 265 689 283 799 b 179 992 274 954 229 992 b 83 896 126 992 83 953 b 179 799 83 838 129 799 b 218 807 193 799 206 801 b 117 678 226 739 175 693 z "},"’":{"ha":333,"x_min":0,"x_max":0,"o":"m 126 644 b 278 893 265 689 283 799 b 179 992 274 954 229 992 b 83 896 126 992 83 953 b 179 799 83 838 129 799 b 218 807 193 799 206 801 b 117 678 226 739 175 693 z "},"«":{"ha":625,"x_min":0,"x_max":0,"o":"m 293 621 l 10 364 l 293 107 l 336 139 l 156 364 l 336 589 z m 543 565 l 274 364 l 543 163 l 586 194 l 419 364 l 586 533 z "},"»":{"ha":625,"x_min":0,"x_max":0,"o":"m 331 621 l 288 589 l 468 364 l 288 139 l 331 107 l 614 364 z m 81 565 l 38 533 l 204 364 l 38 194 l 81 163 l 350 364 z "},"‹":{"ha":351,"x_min":0,"x_max":0,"o":"m 275 607 l 13 364 l 275 121 l 318 153 l 138 364 l 318 575 z "},"›":{"ha":350,"x_min":0,"x_max":0,"o":"m 75 607 l 32 575 l 213 364 l 32 153 l 75 121 l 338 364 z "},"\"":{"ha":593,"x_min":0,"x_max":0,"o":"m 97 628 b 257 893 244 690 264 799 b 158 992 253 954 208 992 b 63 896 106 992 63 953 b 158 799 63 838 108 799 b 197 807 172 799 185 801 b 88 661 194 739 160 703 z m 361 628 b 521 893 508 690 528 799 b 422 992 517 954 472 992 b 326 896 369 992 326 953 b 422 799 326 838 372 799 b 461 807 436 799 449 801 b 351 661 458 739 424 703 z "},"'":{"ha":333,"x_min":0,"x_max":0,"o":"m 106 644 b 257 893 244 689 263 799 b 158 992 253 954 208 992 b 63 896 106 992 63 953 b 158 799 63 838 108 799 b 197 807 172 799 185 801 b 96 678 206 739 154 693 z "}," ":{"ha":278,"x_min":0,"x_max":0,"o":""},"¢":{"ha":833,"x_min":0,"x_max":0,"o":"m 539 71 b 465 94 511 71 486 79 l 582 622 b 686 407 629 572 668 492 l 735 407 l 693 651 b 597 694 663 671 631 685 l 624 813 l 574 813 l 550 707 b 463 715 521 713 492 715 b 46 342 251 715 46 569 b 390 -19 46 128 189 -3 l 367 -125 l 417 -125 l 440 -21 b 732 132 550 -19 664 11 l 693 161 b 539 71 656 103 597 71 z m 351 390 b 490 668 351 522 394 668 b 539 654 507 668 524 664 l 424 133 b 351 390 376 194 351 292 z "},"¤":{"ha":685,"x_min":0,"x_max":0,"o":"m 572 549 b 544 657 572 588 563 625 l 615 726 l 578 761 l 515 699 b 343 776 474 746 411 776 b 171 697 275 776 214 746 l 108 763 l 71 728 l 143 656 b 115 549 125 624 115 588 b 143 440 115 510 125 472 l 72 371 l 108 335 l 171 399 b 343 319 213 350 275 319 b 515 397 411 319 472 350 l 576 333 l 613 371 l 544 439 b 572 549 563 472 572 508 z m 343 375 b 169 549 249 375 169 454 b 343 722 169 643 249 722 b 517 549 438 722 517 643 b 343 375 517 454 438 375 z "},"$":{"ha":851,"x_min":0,"x_max":0,"o":"m 786 193 b 358 711 786 526 358 456 b 460 825 358 763 400 825 b 704 468 563 825 646 675 l 746 468 l 707 793 b 579 854 665 821 622 842 l 579 1042 l 531 1042 l 531 867 b 451 874 504 871 479 874 b 347 864 415 874 381 871 l 347 1042 l 299 1042 l 299 853 b 107 606 186 818 107 739 b 535 79 107 247 535 285 b 411 -56 535 -4 475 -56 b 110 382 306 -56 196 85 l 67 382 l 103 32 b 299 -87 142 -29 217 -68 l 299 -296 l 347 -296 l 347 -97 b 442 -104 379 -101 411 -104 b 531 -96 471 -104 501 -101 l 531 -296 l 579 -296 l 579 -85 b 786 193 694 -49 786 38 z "},"€":{"ha":958,"x_min":0,"x_max":0,"o":"m 603 29 b 449 346 528 29 467 143 l 726 346 l 726 394 l 446 394 b 444 461 444 415 444 438 b 449 578 444 503 446 542 l 726 578 l 726 626 l 453 626 b 611 940 475 828 536 940 b 815 653 676 940 751 858 l 871 653 l 843 885 b 574 993 800 943 683 993 b 179 626 375 993 224 857 l 56 626 l 56 578 l 171 578 b 165 479 167 546 165 514 b 171 393 165 450 167 421 l 56 393 l 56 346 l 178 346 b 581 -21 222 132 372 -21 b 843 88 642 -21 783 6 l 871 319 l 815 319 b 603 29 751 115 672 29 z "},"£":{"ha":931,"x_min":0,"x_max":0,"o":"m 858 281 b 767 208 858 225 832 208 l 451 208 b 532 361 500 254 529 304 l 721 361 l 721 403 l 531 403 b 461 547 522 472 492 508 l 721 547 l 721 589 l 433 589 b 401 725 415 621 401 663 b 525 938 401 867 464 938 b 768 660 607 938 717 833 l 824 660 l 794 885 b 496 993 751 943 664 993 b 103 733 164 993 103 818 b 158 589 103 674 125 628 l 78 589 l 78 547 l 200 547 b 367 401 258 494 328 453 l 78 401 l 78 361 l 389 361 b 394 324 392 349 394 338 b 92 49 394 242 256 129 l 92 0 l 872 0 l 872 281 z "},"¥":{"ha":1021,"x_min":0,"x_max":0,"o":"m 771 972 l 771 944 b 811 872 803 943 835 926 l 647 496 l 492 874 b 535 944 471 938 503 943 l 535 972 l 39 972 l 39 944 b 167 863 71 943 135 940 l 339 439 l 161 439 l 161 390 l 349 390 l 349 247 l 161 247 l 161 200 l 349 200 l 349 117 b 265 28 349 36 300 29 l 265 0 l 738 0 l 738 28 b 654 117 703 29 654 36 l 654 200 l 818 200 l 818 249 l 654 249 l 654 390 l 818 390 l 818 439 l 658 439 l 846 871 b 974 944 876 940 942 943 l 974 972 z "},"∕":{"ha":697,"x_min":0,"x_max":0,"o":"m 656 972 l -208 -278 l -146 -278 l 718 972 z "},"+":{"ha":879,"x_min":0,"x_max":0,"o":"m 768 376 l 464 376 l 464 683 l 415 683 l 415 376 l 111 376 l 111 321 l 415 321 l 415 14 l 464 14 l 464 321 l 768 321 z "},"−":{"ha":838,"x_min":0,"x_max":0,"o":"m 111 376 l 111 321 l 726 321 l 726 376 z "},"×":{"ha":910,"x_min":0,"x_max":0,"o":"m 799 57 l 496 360 l 782 647 l 744 679 l 461 394 l 178 679 l 136 642 l 422 356 l 121 53 l 158 21 l 457 321 l 757 19 z "},"÷":{"ha":833,"x_min":0,"x_max":0,"o":"m 454 542 b 531 619 497 542 531 575 b 454 696 531 663 497 696 b 376 619 410 696 376 663 b 454 542 376 575 410 542 z m 125 383 l 125 328 l 783 328 l 783 383 z m 454 15 b 531 93 497 15 531 49 b 454 169 531 136 497 169 b 376 93 410 169 376 136 b 454 15 376 49 410 15 z "},"=":{"ha":879,"x_min":0,"x_max":0,"o":"m 111 564 l 111 508 l 768 508 l 768 564 z m 111 203 l 111 147 l 768 147 l 768 203 z "},">":{"ha":861,"x_min":0,"x_max":0,"o":"m 126 760 l 126 696 l 685 371 l 126 47 l 126 -17 l 722 329 l 722 413 z "},"<":{"ha":861,"x_min":0,"x_max":0,"o":"m 722 -17 l 722 47 l 164 371 l 722 696 l 722 760 l 126 413 l 126 329 z "},"≥":{"ha":875,"x_min":0,"x_max":0,"o":"m 125 758 l 125 696 l 689 433 l 125 168 l 125 104 l 725 390 l 725 476 z m 125 56 l 125 0 l 726 0 l 726 56 z "},"≤":{"ha":875,"x_min":0,"x_max":0,"o":"m 750 758 l 150 476 l 150 390 l 750 104 l 750 168 l 186 433 l 750 696 z m 750 56 l 149 56 l 149 0 l 750 0 z "},"±":{"ha":879,"x_min":0,"x_max":0,"o":"m 464 425 l 464 683 l 415 683 l 415 425 l 111 425 l 111 369 l 415 369 l 415 111 l 464 111 l 464 369 l 768 369 l 768 425 z m 111 0 l 768 0 l 768 56 l 111 56 z "},"∞":{"ha":1214,"x_min":0,"x_max":0,"o":"m 886 668 b 656 499 804 668 717 608 b 365 668 588 590 501 668 b 115 367 199 668 115 515 b 338 86 115 224 190 86 b 589 254 421 86 524 142 b 850 85 653 164 731 85 b 1103 389 1019 85 1103 239 b 886 668 1103 531 1029 668 z m 903 224 b 685 458 817 224 763 343 b 879 571 735 533 811 571 b 1046 383 989 571 1046 475 b 903 224 1046 301 1000 224 z m 353 183 b 171 378 235 183 171 285 b 313 529 171 457 215 529 b 560 297 421 529 483 413 b 353 183 504 222 425 183 z "},"%":{"ha":944,"x_min":0,"x_max":0,"o":"m 139 0 l 200 0 l 824 993 l 763 993 z m 294 643 b 468 818 390 643 468 721 b 294 990 468 913 390 990 b 121 818 199 990 121 913 b 294 643 121 721 199 643 z m 426 818 b 294 719 426 769 381 719 b 163 817 207 719 163 768 b 294 914 163 865 207 914 b 426 818 382 914 426 867 z m 678 -19 b 850 154 772 -19 850 58 b 678 328 850 250 772 328 b 503 154 581 328 503 250 b 678 -19 503 58 581 -19 z m 808 154 b 678 57 808 106 764 57 b 544 154 589 57 544 106 b 678 251 544 203 589 251 b 808 154 765 251 808 203 z "},"‰":{"ha":1403,"x_min":0,"x_max":0,"o":"m 139 0 l 200 0 l 824 993 l 763 993 z m 294 643 b 468 818 390 643 468 721 b 294 990 468 913 390 990 b 121 818 199 990 121 913 b 294 643 121 721 199 643 z m 426 818 b 294 719 426 769 381 719 b 163 817 207 719 163 768 b 294 914 163 865 207 914 b 426 818 382 914 426 867 z m 678 -19 b 850 154 772 -19 850 58 b 678 328 850 250 772 328 b 503 154 581 328 503 250 b 678 -19 503 58 581 -19 z m 1108 -19 b 1281 154 1203 -19 1281 58 b 1108 328 1281 250 1203 328 b 933 154 1011 328 933 250 b 1108 -19 933 58 1011 -19 z m 808 154 b 678 57 808 106 764 57 b 544 154 589 57 544 106 b 678 251 544 203 589 251 b 808 154 765 251 808 203 z m 1239 154 b 1108 57 1239 106 1194 57 b 975 154 1019 57 975 106 b 1108 251 975 203 1019 251 b 1239 154 1196 251 1239 203 z "},"↑":{"ha":544,"x_min":0,"x_max":0,"o":"m 515 510 l 272 807 l 29 510 l 61 467 l 247 638 l 249 -100 l 297 -100 l 296 639 l 483 467 z "},"→":{"ha":1008,"x_min":0,"x_max":0,"o":"m 672 593 l 629 561 l 800 375 l 49 374 l 49 325 l 801 326 l 629 139 l 672 107 l 969 350 z "},"↓":{"ha":544,"x_min":0,"x_max":0,"o":"m 483 242 l 296 69 l 297 808 l 249 808 l 247 71 l 61 242 l 29 199 l 272 -99 l 515 199 z "},"←":{"ha":1006,"x_min":0,"x_max":0,"o":"m 957 374 l 206 375 l 376 561 l 333 593 l 36 350 l 333 107 l 376 139 l 204 326 l 957 325 z "},"↔":{"ha":1190,"x_min":0,"x_max":0,"o":"m 854 593 l 811 561 l 983 374 l 206 375 l 376 561 l 333 593 l 36 350 l 333 107 l 376 139 l 204 326 l 982 325 l 811 139 l 854 107 l 1151 350 z "},"@":{"ha":1590,"x_min":0,"x_max":0,"o":"m 803 -146 b 1013 -94 888 -146 957 -131 l 996 -50 b 803 -97 946 -85 882 -97 b 301 354 425 -97 301 97 b 803 819 301 651 425 819 b 1289 354 1164 819 1289 651 b 1208 31 1289 97 1247 31 b 1165 125 1175 31 1165 74 l 1165 446 b 810 713 1165 647 982 713 b 481 651 719 713 575 692 l 439 407 l 488 407 b 771 663 558 600 696 663 b 854 544 838 663 846 628 b 421 182 578 518 421 333 b 671 -21 421 32 560 -21 b 872 57 771 -21 838 3 b 1157 -21 900 4 1021 -21 b 1518 354 1389 -21 1518 113 b 803 868 1518 633 1247 868 b 72 354 346 868 72 633 b 803 -146 72 74 346 -146 z m 799 54 b 747 190 778 54 747 82 b 857 507 747 303 772 483 b 860 411 860 479 860 447 l 860 256 b 799 54 860 107 824 54 z "},"&":{"ha":1226,"x_min":0,"x_max":0,"o":"m 1099 142 b 1040 51 1078 79 1061 51 b 956 129 1021 51 996 81 b 1083 568 1032 217 1083 354 l 1083 603 l 713 603 l 713 568 l 813 568 b 800 324 813 479 810 396 l 551 638 b 463 840 496 708 463 782 b 563 942 463 900 496 942 b 843 667 667 942 801 833 l 899 667 l 869 888 b 592 993 811 960 693 993 b 235 742 389 993 235 888 b 308 563 235 686 257 625 l 321 546 b 104 285 178 485 104 406 b 569 -21 104 99 275 -21 b 783 13 636 -21 711 -14 b 969 -21 856 -18 935 -21 b 1144 126 1078 -21 1121 19 z m 372 319 b 390 458 372 363 378 411 l 689 82 l 699 69 b 579 28 668 43 629 28 b 372 319 471 28 372 146 z "},"¶":{"ha":833,"x_min":0,"x_max":0,"o":"m 774 972 l 471 972 b 457 972 471 972 465 972 l 386 972 l 383 972 b 113 722 232 971 113 883 b 386 467 113 557 233 467 l 457 467 l 457 -146 l 510 -146 l 510 919 l 638 919 l 638 -146 l 690 -146 l 690 856 b 774 944 690 936 739 943 z "},"©":{"ha":1096,"x_min":0,"x_max":0,"o":"m 549 -18 b 1054 489 828 -18 1054 208 b 549 994 1054 768 828 994 b 42 489 268 994 42 768 b 549 -18 42 208 268 -18 z m 549 35 b 97 489 297 35 97 238 b 549 942 97 739 297 942 b 999 489 799 942 999 739 b 549 35 999 238 799 35 z m 568 154 b 840 293 671 154 776 181 l 804 319 b 664 238 771 267 717 238 b 494 528 556 238 494 381 b 619 781 494 649 533 781 b 799 543 697 781 772 665 l 842 543 l 804 765 b 594 824 740 806 667 824 b 217 483 403 824 217 690 b 568 154 217 275 365 154 z "},"®":{"ha":1151,"x_min":0,"x_max":0,"o":"m 576 -18 b 1096 489 856 -18 1096 208 b 576 994 1096 768 856 994 b 58 489 296 994 58 768 b 576 -18 58 208 296 -18 z m 576 35 b 114 489 325 35 114 238 b 576 942 114 739 325 942 b 1040 489 826 942 1040 739 b 576 35 1040 238 826 35 z m 835 297 b 713 590 800 426 878 549 b 839 701 772 590 839 638 b 669 831 839 767 782 831 l 289 831 l 289 813 b 336 753 304 811 336 807 l 336 260 b 281 201 336 207 304 201 l 281 182 l 596 182 l 596 201 b 540 260 572 201 540 207 l 540 569 l 569 569 b 633 275 661 569 592 385 b 854 179 665 190 744 179 l 901 179 l 901 199 b 835 297 882 199 851 236 z m 558 608 l 540 608 l 540 792 l 558 792 b 629 704 606 792 629 751 b 558 608 629 657 606 608 z "},"™":{"ha":935,"x_min":0,"x_max":0,"o":"m 415 993 l 42 993 l 42 846 l 54 846 b 161 971 58 899 72 971 l 164 971 l 164 625 b 128 582 164 590 143 586 l 128 575 l 332 575 l 332 582 b 296 625 317 586 296 590 l 296 971 l 300 971 b 404 846 386 971 400 899 l 415 846 z m 867 981 l 867 993 l 699 993 l 656 889 l 614 993 l 440 993 l 440 981 b 476 943 457 981 476 978 l 476 625 b 440 588 476 590 457 588 l 440 575 l 540 575 l 540 588 b 504 625 525 588 504 590 l 504 913 l 601 667 l 699 925 l 699 625 b 664 588 699 590 678 588 l 664 575 l 867 575 l 867 588 b 831 625 851 588 831 590 l 831 943 b 867 981 831 978 851 981 z "},"°":{"ha":350,"x_min":0,"x_max":0,"o":"m 176 753 b 318 894 254 753 318 817 b 176 1036 318 972 254 1036 b 35 894 99 1036 35 972 b 176 753 35 817 99 753 z m 176 801 b 86 894 125 801 86 843 b 176 988 86 946 125 988 b 267 894 228 988 267 946 b 176 801 267 843 228 801 z "},"|":{"ha":428,"x_min":0,"x_max":0,"o":"m 188 993 l 188 -167 l 240 -167 l 240 993 z "},"¦":{"ha":428,"x_min":0,"x_max":0,"o":"m 188 508 l 240 508 l 240 993 l 188 993 z m 240 314 l 188 314 l 188 -167 l 240 -167 z "},"̈":{"ha":0,"x_min":0,"x_max":0,"o":"m -435 882 b -529 976 -435 940 -481 976 b -624 882 -578 976 -624 940 b -529 786 -624 822 -578 786 b -435 882 -481 786 -435 822 z m -167 882 b -260 976 -167 940 -212 976 b -356 882 -310 976 -356 939 b -260 786 -356 822 -310 786 b -167 882 -212 786 -167 822 z "},"̀":{"ha":0,"x_min":0,"x_max":0,"o":"m -556 1003 l -282 786 l -250 829 l -493 1078 z "},"́":{"ha":0,"x_min":0,"x_max":0,"o":"m -251 1003 l -314 1078 l -557 829 l -525 786 z "},"̂":{"ha":0,"x_min":0,"x_max":0,"o":"m -147 829 l -390 1078 l -633 829 l -601 786 l -390 953 l -179 786 z "},"̊":{"ha":0,"x_min":0,"x_max":0,"o":"m -392 826 b -262 956 -321 826 -262 885 b -392 1085 -262 1026 -321 1085 b -521 956 -462 1085 -521 1026 b -392 826 -521 885 -462 826 z m -392 874 b -472 956 -437 874 -472 910 b -392 1038 -472 1001 -437 1038 b -311 956 -346 1038 -311 1001 b -392 874 -311 910 -346 874 z "},"̃":{"ha":0,"x_min":0,"x_max":0,"o":"m -574 919 b -351 786 -514 919 -435 786 b -269 1026 -290 786 -269 821 l -297 1026 b -343 926 -297 939 -315 926 b -560 1060 -390 926 -482 1060 b -647 819 -626 1060 -647 1011 l -619 819 b -574 919 -619 907 -601 919 z "},"̧":{"ha":0,"x_min":0,"x_max":0,"o":"m -428 -236 l -447 -272 b -344 -301 -426 -292 -392 -301 b -172 -196 -226 -301 -172 -257 b -344 -82 -172 -139 -233 -81 l -317 -8 l -367 -8 l -397 -83 l -397 -122 b -286 -203 -324 -122 -286 -157 b -356 -260 -286 -244 -319 -260 b -428 -236 -383 -260 -414 -250 z "},"¨":{"ha":813,"x_min":0,"x_max":0,"o":"m 378 1156 b 283 1250 378 1214 332 1250 b 189 1156 235 1250 189 1214 b 283 1060 189 1096 235 1060 b 378 1156 332 1060 378 1096 z m 646 1156 b 553 1250 646 1214 600 1250 b 457 1156 503 1250 457 1213 b 553 1060 457 1096 503 1060 b 646 1156 600 1060 646 1096 z "},"`":{"ha":833,"x_min":0,"x_max":0,"o":"m 278 1267 l 551 1050 l 583 1093 l 340 1342 z "},"´":{"ha":850,"x_min":0,"x_max":0,"o":"m 569 1267 l 507 1342 l 264 1093 l 296 1050 z "},"ˆ":{"ha":813,"x_min":0,"x_max":0,"o":"m 665 1093 l 422 1342 l 179 1093 l 211 1050 l 422 1217 l 633 1050 z "},"˜":{"ha":946,"x_min":0,"x_max":0,"o":"m 372 1183 b 594 1050 432 1183 511 1050 b 676 1290 656 1050 676 1085 l 649 1290 b 603 1190 649 1203 631 1190 b 386 1324 556 1190 464 1324 b 299 1083 319 1324 299 1275 l 326 1083 b 372 1183 326 1171 344 1183 z "}}}
